<svg width="278" height="115" viewBox="0 0 278 115" fill="none" xmlns="http://www.w3.org/2000/svg">
<g clip-path="url(#clip0_1000_2376)">
<path d="M256.965 73.2147C257.199 70.9616 257.211 69.9261 256.673 69.2223C256.107 68.478 255.747 68.4497 255.747 67.9926C255.747 67.58 256.079 67.3292 256.588 67.3292C257.001 67.3292 257.527 67.4384 258.109 67.4384C258.692 67.4384 259.064 67.3292 259.63 67.3292C260.14 67.3292 260.472 67.576 260.472 67.9926C260.472 68.4497 260.112 68.478 259.545 69.2223C259.173 69.7077 259.117 70.5774 259.117 72.8021C259.117 75.2615 259.792 76.3941 261.588 76.3941C263.384 76.3941 264.035 75.2615 264.035 72.8021C264.035 70.5207 263.967 69.6915 263.607 69.2223C263.04 68.478 262.68 68.4497 262.68 67.9926C262.68 67.58 263.012 67.3292 263.522 67.3292C263.934 67.3292 264.46 67.4384 265.042 67.4384C265.625 67.4384 265.997 67.3292 266.563 67.3292C267.073 67.3292 267.405 67.576 267.405 67.9926C267.405 68.4497 267.045 68.478 266.479 69.2223C265.924 69.9423 265.953 71.0061 266.187 73.2147C266.462 75.9249 265.111 77.8301 261.584 77.8301C258.057 77.8301 256.677 75.9249 256.956 73.2147H256.965Z" fill="#FFF9E3"/>
<path d="M267.55 77.1546C267.55 76.5033 268.048 76.6166 268.614 75.8683C268.958 75.4112 269.043 74.3757 269.043 73.2147V71.5684C269.043 68.6803 268.088 69.0686 267.704 68.4173C267.526 68.114 267.664 67.8106 267.951 67.5881C268.283 67.3413 268.906 67.131 269.524 66.7589C270.491 66.1804 270.879 66.1359 271.211 66.4393C271.599 66.7993 271.434 67.4748 271.308 68.0007C271.171 68.5549 271.062 68.9391 271.062 71.4956V72.5594C271.062 72.9478 271.102 73.0853 271.256 73.1379C271.393 73.1945 271.587 73.0974 271.96 72.9033C272.485 72.612 273.464 71.9486 273.355 71.4956C273.246 71.0264 272.514 71.1639 272.514 70.5855C272.514 70.2821 272.833 69.9787 273.218 69.9787C273.63 69.9787 274.293 70.0879 274.876 70.0879C275.458 70.0879 275.802 69.9787 276.356 69.9787C276.866 69.9787 277.089 70.2821 277.06 70.5855C277.02 71.0426 276.632 71.0951 276.009 71.4835C275.568 71.7585 274.573 72.3531 273.853 72.8224L274.929 74.493C275.386 75.213 276.146 75.929 276.684 76.3456C277.36 76.8714 277.679 76.8027 277.679 77.2436C277.679 77.644 277.056 77.8948 276.381 77.8948C275.151 77.8948 274.585 77.5227 273.853 76.5802C273.509 76.1393 272.663 74.675 272.235 73.9671C271.697 74.3393 270.811 74.8085 271.49 75.8602C272.057 76.6045 272.554 76.4953 272.554 77.1465C272.554 77.5065 272.222 77.7533 271.713 77.7533C271.159 77.7533 270.649 77.644 270.054 77.644C269.46 77.644 269.1 77.7533 268.396 77.7533C267.886 77.7533 267.554 77.5065 267.554 77.1465L267.55 77.1546Z" fill="#FFF9E3"/>
<path d="M123.822 55.8009C123.822 53.2121 125.804 53.653 128.066 50.6758C129.445 48.8556 129.773 47.9212 129.773 43.2936V41.6959C129.773 32.3842 125.97 36.1299 124.429 33.5411C123.713 32.3276 124.097 30.7864 125.42 30.2363C127.843 29.2452 129 28.0317 131.152 22.5224C133.741 15.9088 142.502 12.1631 149.334 12.1631C150.657 12.1631 151.207 12.6606 151.264 13.8175C151.321 15.5245 150.932 16.9039 150.714 19.161C150.439 22.2999 150.714 24.727 148.509 24.8928C147.162 24.9939 146.337 22.8986 145.771 21.9966C144.517 20.0024 141.964 18.3601 140.132 20.7021C138.3 23.0442 138.231 26.4542 138.041 29.136L147.902 28.861C149.723 28.8043 150.164 29.6862 149.5 30.9563C147.902 33.986 147.405 35.8063 142.721 35.4746L137.818 35.1429V39.9929C137.818 44.6204 138.15 48.8636 139.525 50.6839C141.786 53.6611 143.768 53.2201 143.768 55.809C143.768 57.2409 142.446 58.2319 140.407 58.2319C138.202 58.2319 136.164 57.8477 133.793 57.8477C131.423 57.8477 129.991 58.2319 127.18 58.2319C125.141 58.2319 123.818 57.2409 123.818 55.809L123.822 55.8009Z" fill="#FFF9E3"/>
<path d="M149.116 55.6876C149.116 53.0988 151.927 53.3739 153.909 50.7284C155.289 48.9081 155.616 46.8695 155.616 43.3462C155.616 36.7326 151.871 38.2778 150.325 35.6849C149.609 34.4714 150.16 33.262 151.316 32.3802C152.639 31.3891 155.119 30.5599 157.598 29.0754C161.457 26.7616 162.999 26.5958 164.321 27.8093C165.862 29.2412 165.203 31.9433 164.706 34.0346C164.155 36.2391 163.658 37.7803 163.658 41.9709C163.658 46.9301 163.933 48.8596 165.365 50.7325C166.797 52.6053 169.001 53.3779 168.892 55.4732C168.836 57.2935 167.351 58.2845 165.697 58.2845C164.042 58.2845 162.003 57.8436 159.637 57.8436C157.271 57.8436 155.285 58.2845 152.473 58.2845C150.435 58.2845 149.112 57.1276 149.112 55.6957L149.116 55.6876Z" fill="#FFF9E3"/>
<path d="M170.769 55.6876C170.769 53.0988 172.476 53.3739 174.462 50.7284C175.841 48.9081 176.169 44.669 176.169 40.0374C176.169 33.7555 171.869 35.8508 170.328 33.2579C169.612 32.0444 170.162 30.8349 171.319 29.9531C172.642 28.9621 174.13 28.5212 176.113 27.3077C177.654 26.3692 178.592 25.544 180.081 24.2213C181.678 22.842 183.442 22.9552 184.381 24.278C185.206 25.4348 184.215 27.5302 184.215 33.6988C186.804 28.9055 191.047 26.4259 196.556 26.4259C203.279 26.4259 207.413 30.7783 206.199 39.4873C205.099 47.5328 205.483 49.4623 207.854 51.8287C209.508 53.4831 209.893 54.2516 209.727 55.8494C209.561 57.2814 208.404 58.2724 206.365 58.2724C204.161 58.2724 201.847 57.8315 199.477 57.8315C197.106 57.8315 196.775 58.2724 194.517 58.2724C192.479 58.2724 191.763 57.2247 191.706 55.8494C191.597 53.2606 194.958 52.7105 197.491 45.215C199.97 37.9421 194.954 31.2192 189.061 33.6988C183.22 36.1784 182.67 44.94 185.922 50.7244C187.135 52.8723 188.07 54.4701 187.96 55.8494C187.851 57.2814 186.638 58.2724 185.149 58.2724C183.495 58.2724 182.56 57.8315 180.19 57.8315C177.82 57.8315 176.938 58.2724 174.13 58.2724C172.092 58.2724 170.769 57.1155 170.769 55.6836V55.6876Z" fill="#FFF9E3"/>
<path d="M230.959 49.078C226.166 56.5168 216.688 60.3758 213.052 57.6737C207.595 53.5963 212.72 40.0414 224.459 33.5937C221.32 32.3276 217.627 32.6026 215.038 32.7118C212.724 32.7685 211.786 31.7208 212.061 30.3415C212.392 28.4686 216.195 26.1548 222.42 26.1548C226.663 26.1548 229.475 27.2025 232.173 29.2412C235.643 27.5342 239.227 26.4865 240.493 27.7526C242.313 29.5729 239.996 31.1707 238.123 34.2004C236.303 37.1776 236.634 39.4913 238.73 44.3413C241.1 49.7981 244.461 52.3302 244.461 54.2031C244.461 56.0759 242.313 58.2238 239.943 58.2238C236.363 58.2238 232.67 55.1941 230.963 49.078H230.959ZM227.488 45.935C229.418 43.233 229.802 39.5965 228.314 36.8984C226.659 37.9987 225.118 39.378 223.189 41.801C220.652 44.94 219.936 47.7513 221.482 48.8556C222.97 49.9032 225.284 48.9648 227.488 45.935Z" fill="#FFF9E3"/>
<path d="M240.659 36.8175C239.967 36.0085 240.4 34.7465 241.638 32.7927C242.726 31.0655 243.333 29.8035 242.766 28.1895C241.614 24.913 234.555 25.9364 237.221 20.3866C238.908 16.8755 241.731 15.7632 245.278 17.5551C248.599 19.1933 249.55 21.8954 249.348 25.4712C249.17 28.4524 246.727 33.6341 244.069 36.2067C242.767 37.4809 241.553 37.849 240.663 36.8216L240.659 36.8175Z" fill="#FFF9E3"/>
<path d="M249.421 57.3987C248.154 57.067 247.6 56.4602 247.714 55.3033C247.823 54.2557 247.879 52.492 247.823 51.0035C247.714 48.5805 246.884 46.7602 248.482 46.1009C250.189 45.3849 251.346 47.6987 252.725 49.5189C254.323 51.6143 258.235 53.8714 262.037 53.8714C264.848 53.8714 266.94 53.2646 266.94 51.501C266.94 50.0124 264.403 49.1306 258.619 47.367C251.455 45.1624 247.487 41.9102 247.487 36.2917C247.487 29.0713 255.533 26.705 261.426 26.705C265.945 26.705 268.04 27.7526 270.629 27.696C272.502 27.6394 273.493 27.6394 273.383 28.9621C273.327 29.7347 273.165 31.2233 273.274 33.8121C273.383 36.2351 274.213 38.3304 272.615 38.9938C270.908 39.7097 269.528 37.1735 268.372 35.3007C266.83 32.8211 263.578 31.1666 260.492 31.1666C257.571 31.1666 256.083 32.1051 256.083 33.9213C256.083 35.6283 257.956 36.7326 263.19 38.2738C270.96 40.5875 275.479 43.508 275.479 49.2924C275.479 55.0768 269.088 58.6607 260.767 58.6607C256.249 58.6607 253.053 58.329 249.417 57.3946L249.421 57.3987Z" fill="#FFF9E3"/>
<path d="M139.307 97.6953C134.788 97.6953 129.995 98.1362 127.184 98.1362C125.145 98.1362 123.822 97.1451 123.822 95.7132C123.822 93.1244 125.804 93.5653 128.066 90.5881C129.445 88.7679 129.773 84.6379 129.773 80.0063V77.8989C129.773 73.2714 129.441 70.3509 128.066 68.5306C125.804 65.5534 124.373 65.4442 124.373 63.628C124.373 61.9736 125.695 60.9826 127.734 60.9826C129.388 60.9826 131.48 61.4235 133.793 61.4235C136.107 61.4235 137.596 60.9826 139.853 60.9826C141.892 60.9826 143.214 61.9736 143.214 63.628C143.214 65.4483 141.782 65.5575 139.521 68.5306C138.142 70.3509 137.814 73.2673 137.814 77.8989V83.3152C137.814 88.7719 138.089 92.9019 143.158 92.9019C147.567 92.9019 150.265 90.2564 153.517 84.7471C155.224 81.8266 156.381 80.0063 158.201 80.3947C160.131 80.7789 160.737 85.7381 160.183 91.1383C159.633 96.4817 157.429 98.1928 154.508 98.1928C151.587 98.1928 143.764 97.6953 139.299 97.6953H139.307Z" fill="#FFF9E3"/>
<path d="M161.765 82.3201C161.765 73.5019 169.094 66.3948 178.184 66.3948C187.273 66.3948 194.602 73.1177 194.602 82.3201C194.602 91.5225 187.22 98.3546 178.184 98.3546C169.147 98.3546 161.765 91.5751 161.765 82.3201ZM184.963 81.3291C182.924 76.2606 177.468 70.2538 173.006 71.7423C169.81 72.79 169.588 77.9151 172.015 83.481C174.329 88.8245 179.344 93.6745 183.697 92.2426C187.058 91.1423 186.949 86.2923 184.963 81.3331V81.3291Z" fill="#FFF9E3"/>
<path d="M194.881 82.3201C194.881 73.5019 201.989 66.3382 210.863 66.3382C216.263 66.3382 217.145 67.9926 220.122 67.6043C222.934 67.22 223.868 67.2726 224.034 69.0362C224.143 70.4156 222.27 78.898 220.948 79.4522C219.459 80.0589 218.084 77.7978 215.879 74.9905C213.177 71.6291 208.825 69.6996 205.904 71.5724C202.765 73.6111 202.486 80.0023 205.245 85.1273C209.213 92.5095 218.909 91.5185 222.602 88.4321C223.759 87.4411 224.256 87.2753 224.916 87.7728C225.741 88.3796 225.688 89.0389 224.916 90.3616C221.995 95.6525 216.814 98.3506 210.863 98.3506C201.993 98.3506 194.881 91.5711 194.881 82.316V82.3201Z" fill="#FFF9E3"/>
<path d="M227.776 97.0885C226.51 96.7568 225.955 96.15 226.069 94.9932C226.178 93.9455 226.234 92.1819 226.178 90.6933C226.069 88.2703 225.239 86.4501 226.837 85.7907C228.544 85.0748 229.701 87.3885 231.08 89.2088C232.678 91.3041 236.59 93.5612 240.392 93.5612C243.203 93.5612 245.295 92.9545 245.295 91.1908C245.295 89.7023 242.758 88.8205 236.974 87.0568C229.81 84.8523 225.842 81.6001 225.842 75.9815C225.842 68.7611 233.888 66.3948 239.781 66.3948C244.3 66.3948 246.395 67.4425 248.984 67.3858C250.857 67.3292 251.848 67.3292 251.738 68.6519C251.682 69.4245 251.52 70.9131 251.629 73.5019C251.738 75.9249 252.568 78.0202 250.97 78.6836C249.263 79.3996 247.883 76.8634 246.727 74.9905C245.185 72.5109 241.933 70.8565 238.847 70.8565C235.926 70.8565 234.438 71.7949 234.438 73.6111C234.438 75.3181 236.311 76.4224 241.545 77.9636C249.315 80.2774 253.834 83.1979 253.834 88.9823C253.834 94.7667 247.443 98.3506 239.122 98.3506C234.604 98.3506 231.408 98.0189 227.772 97.0845L227.776 97.0885Z" fill="#FFF9E3"/>
<path d="M153.574 20.4675C153.574 17.5349 156.001 15.1079 158.986 15.1079C161.971 15.1079 164.447 17.5349 164.447 20.4675C164.447 23.4002 162.02 25.8798 158.986 25.8798C155.952 25.8798 153.574 23.4528 153.574 20.4675Z" fill="#FFF9E3"/>
<g clip-path="url(#clip1_1000_2376)">
<path d="M60.898 114.264C53.7423 114.264 47.4563 111.602 41.1784 108.572C18.6678 97.7033 4.3363 82.0369 0.829263 64.4531C-2.23687 49.082 3.2401 32.9828 16.6696 17.8868C29.0636 3.96376 44.5803 -1.59816 65.4972 0.391998C78.3968 1.6136 89.3062 6.92472 97.0403 15.7469C103.99 23.6711 108.277 34.172 109.45 46.117C110.814 60.0157 107.857 74.3756 101.134 86.5511C93.78 99.8633 82.8503 108.997 69.5301 112.973C66.4963 113.879 63.6324 114.268 60.898 114.268V114.264ZM57.6579 4.04871C41.8337 4.04871 29.642 9.39219 19.6912 20.5767C7.13547 34.6858 1.98614 49.5836 4.79744 63.6644C8.04964 79.9699 21.5965 94.6291 42.9421 104.936C52.6987 109.644 59.644 111.703 68.3772 109.098C83.898 104.471 92.8335 93.2214 97.5945 84.5974C103.836 73.2996 106.692 59.4171 105.426 46.5134C104.338 35.4139 100.386 25.6977 94.0025 18.4167C86.859 10.27 77.1388 5.56155 65.1169 4.42085C62.5443 4.17815 60.0606 4.05275 57.6579 4.05275V4.04871Z" fill="#FFF9E3"/>
<path d="M70.4699 26.1098L71.7193 26.6012C72.3231 26.873 72.1846 26.7241 72.8982 27.1763C73.0681 27.2834 73.285 27.422 73.4497 27.4559C73.8941 26.8338 72.8668 26.1281 72.3885 25.9111L70.8907 25.289C69.3093 24.7166 66.4733 24.2357 64.7873 24.1912C64.1182 24.1729 63.7 24.1363 63.023 24.2435C61.8546 24.4291 62.3538 24.2357 60.8116 24.6905C60.4379 24.8002 60.2235 24.8761 59.8654 25.0329L58.1769 25.919C57.8057 26.1647 56.9954 26.6848 56.7811 27.0665C57.0555 27.0247 57.8292 26.5306 57.9913 26.4548L59.6302 25.7961L61.6272 25.3858C62.1996 25.3204 61.9225 25.3152 62.2258 25.0146C62.6701 25.1035 62.4166 25.2629 62.8191 25.1531C63.2713 25.0329 64.8971 25.0852 65.3049 25.1191C65.5401 25.1401 65.8538 25.2054 66.0655 25.2315C66.3478 25.2681 66.6197 25.2185 66.8837 25.2943L70.4725 26.1072L70.4699 26.1098Z" fill="#FFF9E3"/>
<path d="M76.2152 22.8634C76.8242 23.0672 77.0412 23.2476 77.4698 23.407C77.6868 23.1064 77.2921 22.4477 77.0595 22.2752C76.2465 21.6767 75.1487 21.7734 74.1581 21.7472C73.387 21.7263 71.4867 22.1341 70.8045 22.3301C70.6868 22.3641 70.5509 22.4138 70.4385 22.4425C69.9706 22.5654 68.7761 22.9392 68.499 23.1195C69.0767 23.2868 69.5054 23.1509 70.0412 22.981C71.173 22.6229 73.0812 22.385 74.2339 22.5288C74.7749 22.5967 74.8481 22.4112 76.2126 22.866L76.2152 22.8634Z" fill="#FFF9E3"/>
<path d="M81.5919 36.7978L80.8234 35.9954C80.434 35.585 80.3163 35.2713 79.7073 34.9917C79.5714 35.057 79.3623 35.1668 79.2865 35.3654C79.4799 35.7131 79.9896 36.0058 80.0576 36.0895C80.4601 36.5548 80.5986 36.5809 80.8339 36.8841C81.0142 37.1167 80.8574 36.9913 81.2835 37.5114L84.3469 41.6675L85.1259 42.9823C85.2722 43.2254 85.3663 43.3743 85.5179 43.6671C85.5833 43.7926 85.6173 43.8658 85.6826 43.9886L86.127 44.8773C86.2185 45.0237 86.14 44.9453 86.2786 45.0342C86.2524 44.2892 85.1625 42.1066 84.7495 41.393C84.0882 40.2482 82.4989 37.6212 81.5893 36.7978H81.5919Z" fill="#FFF9E3"/>
<path d="M47.8494 40.6037C47.5514 40.8834 47.0496 41.2598 46.8953 41.6022C47.0208 41.8453 46.8954 41.5211 47.1228 41.8217C47.2169 41.9446 47.0992 41.9498 47.3789 42.0021C47.3894 41.9943 47.4051 41.9655 47.4077 41.976L47.5828 41.6518C47.6847 41.4898 48.1239 41.4872 48.1396 40.4207C47.9304 40.4782 48.0141 40.4468 47.8468 40.6037H47.8494Z" fill="#FFF9E3"/>
<path d="M71.5337 41.2702C71.7637 41.4218 71.9415 41.3931 72.2473 42.125C72.3179 42.2923 72.3989 42.5223 72.5636 42.585C72.7413 41.9707 72.0983 40.4024 71.654 39.4719C71.6226 39.4065 71.5912 39.3438 71.5625 39.2837C71.5024 39.1661 71.4501 39.0615 71.4056 38.9779C71.3821 38.936 71.3638 38.8994 71.3455 38.8681C70.4829 37.3599 69.244 35.9222 67.8769 34.8323C66.8706 34.0272 66.8915 34.0978 65.9871 33.5645L63.8646 32.4745C63.1902 32.2105 63.483 32.3256 62.8426 32.1661C62.9315 32.4197 63.2634 32.5268 63.7235 32.8117C64.2959 33.1672 64.7194 33.4835 65.2265 33.9148L68.3657 36.7378L69.3433 37.8199C69.3616 37.8382 69.3799 37.8591 69.4008 37.88C69.4792 37.9663 69.5655 38.0735 69.6544 38.1937C69.6779 38.2251 69.7014 38.2564 69.7249 38.2878C69.7667 38.3453 69.8112 38.4028 69.8582 38.4655C69.8635 38.4708 69.8661 38.4786 69.8713 38.4838C69.9863 38.6328 70.1066 38.7871 70.2268 38.9256C70.2372 38.9387 70.266 38.9726 70.2765 38.9831C70.4359 39.1739 70.6555 39.4928 70.8228 39.6261C71.1077 39.8509 71.0162 39.8352 70.7809 40.3658C71.0188 40.2953 71.1913 40.2142 71.3246 40.4782C71.5154 40.8572 71.0502 40.8128 71.2802 41.0115C71.3638 41.0846 71.3534 41.0637 71.3377 41.0454C71.3455 41.0533 71.356 41.0637 71.3717 41.0794C71.505 41.2206 71.3142 41.1291 71.5337 41.2702Z" fill="#FFF9E3"/>
<path d="M59.4576 16.4855C57.9102 17.2984 56.619 18.4119 55.6414 19.8574C55.5185 20.0403 55.163 20.5945 55.1578 20.8245C55.15 21.099 55.2127 21.2401 55.4166 21.5564C55.759 21.5329 55.7015 21.444 55.8191 21.1617L56.1119 20.6259C56.6948 19.7476 56.8986 19.6822 57.5678 18.9425C57.9207 18.5531 58.8172 17.8473 59.272 17.5127C59.5857 17.2801 59.8523 17.1259 60.2392 16.9246C60.6574 16.7103 61.3684 16.3156 61.7866 16.1692C62.0009 16.0934 62.2205 16.096 62.3407 15.9287C61.9173 15.3328 60.0301 16.1849 59.4576 16.4855Z" fill="#FFF9E3"/>
<path d="M91.8749 32.0093C91.8828 31.9936 91.888 31.9727 91.8906 31.9518C91.9037 31.8603 91.8749 31.7192 91.8017 31.5466C91.7887 31.5127 91.773 31.4787 91.7547 31.4421C91.7102 31.3532 91.658 31.2565 91.5926 31.1546C91.5456 31.0788 91.4907 31.0134 91.4358 30.9507C91.4253 30.9376 91.4149 30.9245 91.4018 30.9141C91.3914 30.901 91.3809 30.8906 91.3704 30.8801C91.3182 30.8226 91.2633 30.7677 91.2136 30.7076C91.1744 30.6605 91.1378 30.6135 91.1064 30.5612C91.0463 30.4619 90.9653 30.3573 90.866 30.2475C90.8503 30.2292 90.832 30.2109 90.8163 30.1926C90.3928 29.7326 89.7315 29.2229 89.3499 28.9092C87.8548 27.6781 85.2984 26.4313 83.372 25.7752C83.3197 25.7569 83.2674 25.7386 83.2152 25.7229C83.1629 25.7046 83.1106 25.6889 83.0557 25.6733C82.8152 25.5948 82.5721 25.5243 82.3212 25.4615C82.1565 25.4171 81.9892 25.3779 81.822 25.3387C81.7383 25.3178 81.6547 25.2995 81.571 25.2838C81.3175 25.2289 81.0639 25.1819 80.8104 25.1426C80.7241 25.1296 80.6405 25.1165 80.5568 25.1034C80.4706 25.0904 80.3869 25.0799 80.3033 25.0695C80.1334 25.0485 79.9661 25.0303 79.7962 25.0172C79.6315 25.0015 79.4669 24.991 79.3048 24.9832C79.2185 24.9806 79.1323 24.9754 79.046 24.9727C78.8134 24.9675 78.7585 25.0695 78.6383 25.208C78.5076 25.3596 78.4109 25.4223 78.3717 25.6158C78.6644 25.6236 78.8918 25.7072 79.2368 25.7491C79.9609 25.8379 79.5505 25.6889 79.9008 25.4798C80.2589 25.5844 79.9687 25.6628 80.5359 25.8798C80.9881 26.0523 81.0247 25.8458 81.2704 26.2379C81.2861 26.2326 81.307 26.2039 81.3123 26.2169L81.4612 26.1228C81.5449 26.0784 81.4037 25.9634 81.8429 26.1621L85.3089 27.4141L86.4198 27.9892C86.5086 28.044 86.6027 28.0963 86.7021 28.1512C86.736 28.1695 86.77 28.1904 86.804 28.2087C87.379 28.5302 88.0953 28.9955 88.754 29.4738C89.0101 29.662 89.2584 29.8502 89.4858 30.0332C89.7132 30.2162 89.9223 30.3965 90.0975 30.5638L91.2293 31.7113C91.5952 32.0746 91.8096 32.1348 91.8723 32.0067L91.8749 32.0093Z" fill="#FFF9E3"/>
<path d="M54.4521 31.3845C54.3266 31.5805 54.2038 31.8001 54.0809 32.0354C54.0469 32.1007 54.0156 32.1634 53.9816 32.2314C53.8352 32.5268 53.6941 32.8457 53.5608 33.1698C53.5294 33.2482 53.498 33.3266 53.4667 33.405C53.3804 33.6272 53.2968 33.852 53.221 34.0742C53.1687 34.2284 53.1164 34.38 53.0694 34.529C53.0458 34.5996 53.0249 34.6675 53.004 34.7355C52.9805 34.8113 52.957 34.8897 52.936 34.9629C52.889 35.125 52.8446 35.2844 52.8027 35.4412C52.7792 35.538 52.7531 35.632 52.7322 35.7261C52.7086 35.8202 52.6877 35.9091 52.6694 35.998C52.6642 36.0163 52.6616 36.032 52.659 36.0477C52.5257 36.6724 52.3845 37.1298 52.2669 37.8434L51.9715 39.7306C51.9637 40.2063 51.8016 41.0558 51.7676 41.6701C51.7546 41.8975 51.7572 42.1458 51.752 42.3758C51.7467 42.666 51.6866 42.8646 51.6814 43.0764L51.7101 43.9938C51.6683 45.9359 51.6918 49.4359 52.4603 51.2447L52.7243 51.629L52.4394 49.9979C52.4185 49.8515 52.4237 49.7496 52.3976 49.6163C52.2956 49.0857 52.3636 49.0621 52.2956 48.7641L52.2695 47.6898C52.2774 47.4337 52.2355 47.12 52.2381 46.9841L52.4342 43.3639C52.442 43.0816 52.3636 43.2802 52.4655 42.9038C52.5231 42.6895 52.4943 42.517 52.5126 42.2844L52.7034 41.2074C52.9413 41.095 53.8666 41.082 53.5634 40.4965L52.7975 40.452C52.7295 40.0573 52.7688 39.9763 52.9413 39.5241C52.9909 39.3986 53.0458 39.3228 53.0641 39.2444C53.1347 38.9752 53.0537 39.1974 53.0641 38.9412C53.0824 38.3766 53.6549 38.5883 54.0208 38.4786C54.0103 38.4707 53.992 38.4472 53.9868 38.4577C53.9816 38.4681 53.9607 38.4394 53.9528 38.4367C53.9189 38.4184 53.864 38.3923 53.8457 38.3818C53.3804 38.1544 53.566 38.3505 53.234 38.076C53.2471 37.8591 53.3098 37.8068 53.3517 37.548C53.4248 37.1089 53.5581 36.5574 53.7254 35.9666C53.7437 35.8987 53.7646 35.8281 53.7856 35.7601C53.8012 35.7052 53.8195 35.6477 53.8378 35.5928C53.9711 35.1485 54.1254 34.6884 54.2874 34.2415C54.3188 34.1526 54.3528 34.0663 54.3841 33.9775C54.3841 33.9696 54.3894 33.9618 54.392 33.9539C54.426 33.8598 54.4625 33.7657 54.4991 33.6716C54.7161 33.1123 54.9435 32.5895 55.1605 32.1661C55.1918 32.1007 55.2258 32.038 55.2598 31.9779C55.2964 31.9099 55.333 31.8446 55.3669 31.7844C55.5395 31.4891 55.7486 31.2172 55.9472 30.948L56.6242 30.2187C56.8386 30.2893 56.9457 30.4331 57.181 30.4121C57.2829 29.9835 56.5249 30.007 57.4528 29.6358C57.6619 29.5522 57.7142 29.479 57.8841 29.3744C58.8016 28.7915 56.9902 27.9368 55.0193 30.5193C54.7501 30.8722 54.6717 31.0421 54.4599 31.3767L54.4521 31.3845Z" fill="#FFF9E3"/>
<path d="M79.1062 19.9149C79.1062 19.9149 79.0931 19.8914 79.0852 19.8783C79.0722 19.8548 79.0565 19.8286 79.0382 19.8051C79.0303 19.792 79.0225 19.779 79.0147 19.7685C78.999 19.745 78.9833 19.7188 78.965 19.6979C78.9232 19.6404 78.8866 19.5908 78.8604 19.5594C78.7507 19.4182 78.4501 19.0889 78.3063 18.9817C77.7522 18.5661 76.785 18.1009 76.0714 17.8734L73.191 17.2566L71.1992 17.2095C71.0502 17.2226 70.9038 17.2357 70.7574 17.2513C68.5932 17.4631 66.9543 17.7767 64.8396 18.5583C62.7381 19.3346 61.2116 20.3828 59.7086 21.9772C59.5099 22.189 58.8722 22.9496 59.672 22.5549L60.9188 21.9798C61.0234 21.9171 60.9763 21.8962 61.1044 21.5067C61.5069 21.5067 61.8311 21.4231 62.0297 21.2009C62.2911 20.9082 62.2571 20.6232 62.7642 20.6337C62.9759 20.5971 62.7093 20.5474 63.1537 20.3331L64.4188 19.7188C65.0984 19.4052 66.6929 18.8223 67.4248 18.6759L68.669 18.4119C69.1656 18.2917 70.7156 18.1061 71.2802 18.0695L72.2474 18.0904L73.4889 18.1192C73.915 18.127 74.0274 18.2211 74.3515 18.2446C74.6181 18.1636 74.4744 17.978 74.7462 18.0747C74.8142 18.0982 74.8638 18.1374 74.9083 18.1819L74.9292 18.2054C74.9893 18.276 75.039 18.3544 75.1069 18.4145C75.3762 18.4145 75.4337 18.3021 75.6741 18.4616C75.6898 18.472 75.7029 18.4825 75.7133 18.4903C75.7238 18.4982 75.7316 18.506 75.7395 18.5138C75.7447 18.5165 75.7473 18.5217 75.7499 18.5243L75.7604 18.5348C75.7604 18.5348 75.7709 18.5478 75.7761 18.5531C75.7944 18.5766 75.8179 18.5949 75.8859 18.621C76.1865 18.736 76.4792 18.7125 77.2973 19.1412L78.2619 19.7032C78.884 20.1475 79.2081 20.4925 79.1637 20.0613C79.1637 20.0403 79.1532 20.009 79.1375 19.9776C79.1297 19.9567 79.1166 19.9332 79.1035 19.9097L79.1062 19.9149Z" fill="#FFF9E3"/>
<path d="M63.3393 47.337L63.3811 44.5141C63.2478 43.2228 63.4778 42.1537 63.1328 40.3345C62.9733 39.498 62.9054 38.6642 62.691 37.8435C62.5682 37.3677 62.4349 36.9025 62.2859 36.4477C62.265 36.3849 62.244 36.3248 62.2231 36.2621C62.2022 36.1993 62.1813 36.1392 62.1578 36.0765C62.095 35.9014 62.0297 35.7288 61.9617 35.5563C61.9513 35.5302 61.9408 35.5014 61.9278 35.4753C61.9121 35.4309 61.8938 35.389 61.8729 35.3472C61.8493 35.2871 61.8232 35.227 61.7945 35.1695C61.7762 35.125 61.7552 35.0832 61.737 35.0388C61.6742 34.9029 61.6115 34.7695 61.5435 34.6362C61.5252 34.5996 61.5069 34.5604 61.486 34.5238C61.4625 34.4794 61.439 34.435 61.4154 34.3905C61.3658 34.299 61.3161 34.2076 61.2612 34.1161C61.2351 34.0716 61.2089 34.0272 61.1828 33.9828C61.1697 33.9592 61.1593 33.9383 61.1436 33.9174C61.1201 33.8782 61.0966 33.839 61.0704 33.7998C61.0312 33.7344 60.9894 33.6691 60.9449 33.6064C60.7175 33.264 59.9308 32.0877 59.5152 32.0537C59.3636 32.5347 60.5503 34.5709 60.8796 35.3002L61.2717 36.3274L61.5305 37.0018C61.7866 37.8565 61.818 37.5873 61.0338 37.8696C60.8221 37.9454 60.762 37.9428 60.7385 38.1885C61.0208 38.1676 61.1488 38.0709 61.4965 38.1048C61.6847 38.1205 62.082 38.2826 61.8415 38.5022L60.877 38.7008L60.8718 38.8524C61.8676 38.8786 62.082 38.7557 62.129 39.2576C61.6141 39.451 61.337 39.3804 60.7123 39.7934C61.0208 39.8823 61.0861 39.8744 61.4494 39.8823C62.3512 39.9006 62.2414 39.7699 62.4532 41.0219C62.5629 41.6676 62.7302 42.8255 62.7276 43.4241C62.7276 43.675 62.8034 43.7717 62.8139 44.0174C62.84 44.7101 62.7381 44.3625 62.8583 45.2852C62.9054 45.6563 62.8583 49.632 62.7956 50.0685C62.5368 50.0685 62.0768 50.0947 61.9382 50.2724C62.0245 50.4868 62.2728 50.5155 62.5734 50.5652C62.8714 50.6148 62.793 50.5965 62.772 51.331C63.1275 51.216 62.921 50.7795 63.0962 50.1757C63.2896 49.4987 63.0831 48.7982 63.287 48.048C63.3445 47.8363 63.3288 47.5697 63.334 47.3344L63.3393 47.337Z" fill="#FFF9E3"/>
<path d="M31.2174 50.2306C31.254 50.0712 31.0971 50.0111 30.9665 49.9222L29.7458 49.0753C29.7981 48.6336 29.9627 48.6623 30.0751 48.4271C30.1143 48.3434 30.2163 47.8337 30.2607 47.6795C30.6214 46.4458 31.2252 45.1101 31.4396 44.2135L31.6199 43.3927C31.4265 43.4686 31.4343 43.4476 31.301 43.6672C31.0606 44.0619 30.8253 44.3102 30.577 44.7389C29.7066 46.2419 28.9093 48.4976 28.4205 50.2359C28.4022 50.3038 28.3866 50.377 28.3656 50.4554C28.1435 51.2004 27.9971 51.9872 27.8089 52.6563C27.7514 52.8628 27.7645 52.9674 27.7017 53.1529L27.4874 54.0861C27.4482 54.3057 27.4116 54.4364 27.3828 54.5827C27.3123 54.9304 27.226 55.2806 27.192 55.5891L26.9254 57.7952L26.8888 60.0301C26.8967 60.2183 26.915 60.1712 26.9515 60.3542C26.9855 60.5215 26.9777 60.5554 27.0273 60.7175C27.0901 60.9135 27.077 60.9292 27.2338 61.0103L27.3567 60.7855C27.5188 60.2522 27.4377 60.2339 27.4822 59.8105L27.7279 58.6369C28.1304 58.6473 28.58 58.7597 28.9172 58.548C28.9093 58.1794 28.5904 58.2761 27.7331 57.8762C27.754 57.0581 27.9265 57.5678 29.0165 57.2097C28.6114 56.185 28.0049 56.977 28.0232 56.3131C28.0285 56.0779 28.1722 55.7067 28.5617 55.7172C29.108 55.7328 29.5367 56.172 29.7693 55.6806C29.4426 55.3957 28.7447 55.2833 28.3343 55.048C28.3029 54.7134 28.3055 54.8311 28.465 54.5671C28.6166 54.3135 28.4702 54.3658 28.6715 53.6287L29.6778 49.8098C30.0202 49.8229 30.462 50.0895 30.8671 50.2176C30.9586 50.2463 30.99 50.262 30.9978 50.2725C31.0161 50.2725 31.0423 50.2672 31.0867 50.2646C31.2148 50.2594 31.1285 50.2829 31.2122 50.2306H31.2174Z" fill="#FFF9E3"/>
<path d="M31.0058 50.2698C31.0243 50.2882 30.9373 50.2803 31.0058 50.2698Z" fill="#FFF9E3"/>
<path d="M23.6712 64.5494C23.6947 64.4318 23.7025 64.2697 23.7287 64.1103L24.2567 61.5774C24.5468 60.3071 24.9049 58.6813 25.2813 57.4318L25.7596 54.9277C25.8041 54.7474 25.7805 54.6481 25.8067 54.4755C25.8694 54.0782 26.0315 53.8325 26.0367 53.1137C25.7518 53.1346 25.9766 53.1372 25.6891 53.2209C25.2865 53.3359 25.067 54.0808 24.918 54.4886C24.4579 55.7328 23.4751 59.6013 23.2791 60.7671C23.2242 61.086 23.1405 61.5853 23.0595 61.8623C22.8635 62.5498 22.6517 64.4004 22.4792 65.263C22.4374 65.4695 22.4688 65.6891 22.4505 65.9008C22.4243 66.2014 22.3538 66.1151 22.3302 66.434C22.2989 66.8888 22.2989 67.226 22.2335 67.6651C22.1839 67.9919 22.1656 68.5146 22.1211 68.8754C22.0976 69.0688 22.1054 69.3145 22.1002 69.5158C22.095 69.8007 22.0349 69.9549 22.0296 70.164L21.9983 73.3033C21.9878 73.6274 22.0976 75.2611 22.1839 76.0687C22.1839 76.0818 22.1865 76.0923 22.1865 76.1027C22.1917 76.1472 22.1969 76.1864 22.1995 76.2256C22.1995 76.2413 22.2022 76.2543 22.2048 76.2674C22.2048 76.2778 22.2074 76.2909 22.2074 76.2988C22.21 76.3223 22.2126 76.3432 22.2152 76.3615C22.2178 76.3824 22.2205 76.3981 22.2231 76.4164C22.2283 76.4425 22.2335 76.4661 22.2361 76.4817C22.2597 76.5784 22.2701 76.7118 22.2806 76.8241C22.2832 76.8738 22.2884 76.9183 22.2936 76.9522L22.6282 78.6513C22.6883 78.8473 22.7563 79.2943 22.9602 79.3674C23.1797 79.0799 23.002 78.7401 22.9837 78.4108L22.9105 77.1169L22.8844 76.6307C22.8818 76.3458 22.9262 75.9825 22.8844 75.5643C22.7694 74.4481 22.9001 71.8447 22.9288 70.7312C22.934 70.5143 22.921 70.6789 22.9811 70.5718C23.4307 70.4437 24.0946 70.7939 24.4449 70.5561C24.3612 70.3783 24.4762 70.5195 24.2959 70.4202C24.1077 70.3182 22.3694 70.0542 23.1249 69.1707L23.3 69.0296C23.3 69.0296 23.3209 69.0113 23.3287 69.0061C23.3287 69.0061 23.3993 68.9303 23.4019 68.9303C23.8201 68.9407 24.2828 69.04 24.6801 68.9224C24.6304 68.3944 23.0883 68.6401 23.1013 68.1409C23.1118 67.7331 23.2085 67.8141 23.2921 67.4064C23.5326 67.4116 24.4213 67.3881 24.5703 67.3044C24.5886 66.8104 23.8228 66.9071 23.2895 66.7451C23.3131 66.4758 23.4202 66.1909 23.462 65.9243C23.5692 65.2055 23.5013 65.3911 23.6659 64.552L23.6712 64.5494Z" fill="#FFF9E3"/>
<path d="M73.3373 64.2932C69.2257 63.909 64.4972 64.3795 61.7474 65.4851C61.7552 65.4904 61.7631 65.4956 61.7683 65.5008C61.7997 65.5296 63.3784 66.9358 65.4173 66.9907C67.3149 67.0404 69.1603 65.6786 69.1786 65.6655C69.6909 65.276 70.4254 65.3754 70.8175 65.8877C71.207 66.4026 71.1077 67.1345 70.5953 67.5266C70.496 67.6024 68.0991 69.4007 65.3571 69.3275C62.4061 69.2491 60.2705 67.3018 60.1817 67.2181C60.017 67.0665 59.9098 66.8757 59.8549 66.6745C59.7164 66.8313 59.6066 66.996 59.536 67.1659C57.8788 71.1363 63.0439 76.581 67.443 76.6987C71.8422 76.8137 76.751 72.4119 78.3768 69.6046C78.4187 69.534 78.4553 69.4635 78.4945 69.3955C78.6016 68.3395 78.68 67.2756 78.7193 66.1987C78.024 65.2368 76.3459 64.5729 73.3373 64.2932Z" fill="#FFF9E3"/>
<path d="M14.5252 47.6062C14.5331 47.5906 14.5409 47.5775 14.5487 47.5618C14.5592 47.5435 14.5696 47.5252 14.5775 47.5095C14.5958 47.4782 14.6141 47.4494 14.6324 47.4207C14.6768 47.3501 14.7213 47.2847 14.7631 47.1802L15.1029 46.2679C15.1473 46.166 15.2336 45.9961 15.2911 45.8445C15.3747 45.6301 15.5159 45.3426 15.6884 45.0316C15.7224 44.9688 15.759 44.9061 15.7929 44.8434C16.0099 44.4617 16.2556 44.0566 16.4778 43.709C16.5144 43.6514 16.551 43.5939 16.5876 43.5417C16.6242 43.4894 16.6581 43.4345 16.6895 43.3848C16.7235 43.3352 16.7548 43.2881 16.7836 43.2411C16.815 43.1966 16.8437 43.1548 16.8699 43.1156C16.8803 43.0999 16.8882 43.0868 16.896 43.0764C16.9064 43.0659 16.9117 43.0529 16.9195 43.0424C16.9718 42.9692 16.9953 42.9379 17.0345 42.8699C17.045 42.8542 17.0528 42.8385 17.0633 42.8176C17.0737 42.7993 17.0842 42.7784 17.0973 42.7523C17.2593 42.4464 17.4423 42.2504 17.6122 42.023C18.0722 41.4114 18.1454 41.2624 18.6865 40.6507L19.5046 39.6757C19.5674 39.6156 19.6092 39.5816 19.6667 39.5189C20.1712 38.9805 20.3149 38.6877 21.0311 38.1231C21.1749 38.0081 21.1984 37.9401 21.3213 37.8147C21.4284 37.7023 21.5539 37.6422 21.6715 37.5167C21.8467 37.3285 22.1133 37.041 22.3721 36.9782C22.5472 36.2176 22.7066 36.4816 23.1118 36.6907L23.1641 36.5861C23.4856 35.8334 24.1077 35.6242 24.7272 35.1799C25.0016 34.9812 24.8814 34.3173 25.344 34.5813L25.4904 34.6963C25.9478 34.1814 27.4874 33.3789 28.133 32.932C28.4389 32.7202 28.7787 32.5843 29.1341 32.4275L29.2518 31.6877C28.8048 31.6459 27.064 32.715 26.4915 33.0313L22.6779 35.4596L21.2429 36.6175C21.2429 36.6175 21.222 36.6358 21.2141 36.641L21.12 36.7116C21.12 36.7116 21.0991 36.7273 21.0913 36.7351C20.247 37.4069 18.9348 38.8393 18.0226 39.9424C17.8474 40.1515 17.688 40.3501 17.5495 40.5279C17.5024 40.588 17.4606 40.6429 17.4188 40.6978C17.3926 40.7317 17.3665 40.7683 17.3351 40.8102C17.2907 40.8729 17.2436 40.9409 17.194 41.014C17.16 41.0637 17.1234 41.116 17.0894 41.1709C17.0711 41.1996 17.0528 41.2258 17.0345 41.2545C16.9796 41.3408 16.9221 41.427 16.8646 41.5211C16.8071 41.6126 16.747 41.7067 16.6869 41.8008C16.6477 41.8636 16.6085 41.9289 16.5693 41.9916C16.5301 42.057 16.4908 42.1197 16.4516 42.1851C16.4124 42.2504 16.3732 42.3131 16.3366 42.3759C16.3183 42.4072 16.2974 42.4386 16.2791 42.47C16.2425 42.5327 16.2059 42.5928 16.172 42.6529C16.1014 42.7706 16.036 42.8856 15.9785 42.9875C15.9053 43.1156 15.8426 43.2306 15.7929 43.3221C15.6074 43.6697 15.4557 43.9599 15.3146 44.2448C15.1316 44.6107 14.967 44.9662 14.7788 45.4184C14.3449 46.4561 14.0051 47.6062 13.762 48.6779C13.7306 48.8217 13.7097 48.955 13.6679 49.1301C13.6391 49.2451 13.545 49.4882 13.5424 49.5405C13.5189 50.4162 13.6182 50.1678 13.4483 50.9076C13.4431 50.9311 13.4378 50.9546 13.4352 50.9807C13.4274 51.033 13.4248 51.0905 13.4378 51.1428C13.4431 51.1663 13.4509 51.1899 13.4666 51.2108C13.4692 51.2186 13.4744 51.2238 13.4797 51.2317C13.4797 51.2317 13.4823 51.2238 13.4849 51.2212C13.4849 51.2186 13.4875 51.2134 13.4901 51.2082C13.4927 51.2029 13.4953 51.1977 13.498 51.1951C13.5006 51.2029 13.5136 51.1742 13.5189 51.1611C13.5189 51.1611 13.5189 51.1585 13.5189 51.1559C13.6809 50.8056 13.5685 50.8318 13.6025 50.5207C13.6208 50.3613 13.6548 50.3351 13.6914 50.2907C13.6966 50.2855 13.6992 50.2802 13.7045 50.2724C13.7123 50.2619 13.7201 50.2489 13.728 50.2306C13.7332 50.2175 13.741 50.2018 13.7463 50.1835C13.7515 50.1652 13.7567 50.1443 13.762 50.1208C13.7646 50.1051 13.7698 50.0868 13.7724 50.0659C13.7724 50.0554 13.775 50.045 13.7776 50.0345C13.8221 49.679 13.8534 49.5902 13.9632 49.2922C14.3161 49.3053 14.1305 49.3445 14.4102 49.4046C14.5435 49.2582 14.6925 49.2268 14.5853 49.0726C14.5775 49.0596 14.567 49.0465 14.554 49.0308C14.5461 49.023 14.5409 49.0151 14.5331 49.0073C14.4834 48.9524 14.4076 48.8844 14.303 48.7982C14.2952 48.7903 14.2821 48.7825 14.2743 48.7746C14.222 48.7302 14.1906 48.7093 14.1697 48.6858C14.1619 48.6779 14.1567 48.6727 14.1514 48.6622C14.1357 48.6283 14.1357 48.5812 14.1357 48.4636C14.3605 48.3407 14.3814 48.3799 14.635 48.4453C14.6298 48.4139 14.6219 48.3826 14.6141 48.3538C14.6062 48.3277 14.5958 48.2989 14.5853 48.2754C14.5043 48.0741 14.3762 47.9513 14.4782 47.6847C14.4886 47.6585 14.5017 47.6298 14.5148 47.601L14.5252 47.6062Z" fill="#FFF9E3"/>
<path d="M44.5612 28.572C44.2606 29.0321 43.9156 29.4529 44.1665 30.0149C44.3416 29.9757 44.4749 29.8711 44.6108 29.7352C45.0265 29.33 45.0291 29.2098 45.7583 28.7785L46.6157 28.2375C47.0208 27.7408 47.0653 28.1381 47.473 28.2375C47.6639 27.8297 47.5332 27.8297 47.9566 27.6441C48.2938 27.4977 49.5092 27.3592 49.8386 27.3775C50.0137 27.3879 50.0895 27.3043 50.743 27.3226C51.2422 27.3357 51.3782 27.3226 51.9036 27.4245C52.2094 27.4847 53.0223 27.5474 53.5817 27.6729C53.8143 27.7251 54.1227 27.8349 54.3423 27.8741C54.3214 27.7591 54.3501 27.8297 54.2874 27.7434C54.0312 27.3932 52.2355 26.7188 51.7075 26.6116C50.5104 26.3659 49.5432 26.2039 48.2781 26.4966C47.7632 26.6142 47.2848 26.7475 46.83 26.9619C46.0955 27.3095 44.9768 27.9395 44.5612 28.5746V28.572Z" fill="#FFF9E3"/>
<path d="M27.3462 38.6589C27.4299 38.5099 27.5135 38.4002 27.6024 38.2852C27.8664 38.327 27.7461 38.3662 27.9918 38.4472C28.3055 37.8852 27.9526 37.65 28.6087 37.7519C28.7211 37.4905 28.661 37.5114 28.8466 37.2945C28.9799 37.1403 29.0295 37.007 29.2099 36.8998L30.0098 36.1862C30.2973 35.9457 31.4683 35.1224 31.5702 34.7434C31.1912 34.7224 31.3141 34.8375 31.0083 34.8531C30.6109 34.874 30.8044 34.7799 30.4698 35.0047C29.27 35.815 29.1994 35.8229 28.0703 36.7534C27.9239 36.8737 27.8794 36.9312 27.72 37.054C27.1423 37.4984 26.9019 37.8905 26.4183 38.3505C25.8432 38.8968 24.6879 40.5801 24.3429 41.3277L23.4829 43.2463C23.0438 44.2396 22.7876 45.4942 22.5419 46.5398C22.4844 46.7829 22.5079 46.9658 22.4687 47.2037C22.4504 47.3187 22.3746 47.7029 22.3694 47.8258C22.3616 48.1656 22.4191 48.2754 22.7955 48.3067C23.0908 47.9356 22.9915 47.4468 23.0438 47.2429L23.5718 45.4576C23.611 45.3191 23.6058 45.2119 23.6371 45.0891C24.0449 45.0864 24.0815 45.2799 24.3847 45.2041C24.4762 44.7597 23.8645 44.7676 23.8253 44.4565C23.8096 44.3232 24.0449 44.1272 24.2331 43.6619C24.369 43.3299 24.471 43.0738 24.599 42.7679C25.0408 41.7224 25.804 40.5801 26.515 39.6757C26.9332 39.1451 26.9986 39.2575 27.3384 38.6563L27.3462 38.6589Z" fill="#FFF9E3"/>
<path d="M98.1403 54.7892C98.1403 54.7892 98.143 54.8022 98.1456 54.8101C98.1508 54.8258 98.1534 54.8414 98.1586 54.8624C98.1586 54.8728 98.1639 54.8859 98.1665 54.899C98.1665 54.912 98.1691 54.9303 98.1743 54.946C98.1769 54.9748 98.1822 55.0061 98.1848 55.0453C98.1952 55.014 98.2057 54.98 98.2161 54.9434C98.2266 54.9094 98.2371 54.8702 98.2449 54.831C98.2632 54.7526 98.2789 54.6689 98.2919 54.5774C98.2998 54.5252 98.3076 54.4703 98.3129 54.4128C98.3155 54.384 98.3181 54.3553 98.3233 54.3265C98.3285 54.269 98.3338 54.2089 98.3364 54.1488C98.3651 53.7436 98.3651 53.2627 98.3442 52.753C98.3416 52.6955 98.339 52.6353 98.3364 52.5726C98.3181 52.1805 98.2867 51.7701 98.2501 51.3624C98.2449 51.2997 98.237 51.2369 98.2318 51.1716C98.2318 51.1637 98.2318 51.1533 98.2292 51.1454C98.224 51.0879 98.2187 51.0278 98.2109 50.9703C98.1952 50.8265 98.1795 50.6854 98.1612 50.5442C98.1534 50.4841 98.1482 50.4214 98.1403 50.3613C98.1273 50.2646 98.1142 50.1652 98.1011 50.0711C98.0881 49.977 98.075 49.8829 98.0619 49.7888C98.0567 49.7575 98.0541 49.7287 98.0489 49.6973C98.041 49.6372 98.0306 49.5771 98.0227 49.517C97.9887 49.3105 97.9574 49.1118 97.9234 48.9263C97.9155 48.874 97.9051 48.8217 97.8946 48.772C97.8659 48.6204 97.8371 48.4793 97.8084 48.3512C97.7848 48.244 97.7587 48.1473 97.7378 48.0584C97.6751 47.8206 97.6306 47.6716 97.5705 47.4625L97.0503 45.6511C97.019 45.5596 96.9928 45.4838 96.9641 45.4132L96.938 45.3426C96.9249 45.3087 96.9118 45.2721 96.8988 45.2381C96.8857 45.2015 96.8752 45.1675 96.8622 45.1283C96.8543 45.1022 96.8439 45.076 96.836 45.0473C96.8229 45.0054 96.8073 44.961 96.7916 44.9113C96.7759 44.8643 96.7576 44.8146 96.7393 44.765C96.7027 44.6656 96.6635 44.5611 96.6217 44.467C96.5354 44.2657 96.4413 44.0409 96.342 43.8109C96.3132 43.7403 96.2819 43.6724 96.2505 43.6018C96.1904 43.4606 96.1277 43.3195 96.0649 43.181C96.0336 43.1104 95.9996 43.0424 95.9682 42.9745C95.861 42.7471 95.7513 42.5327 95.6389 42.3419C95.5082 42.1171 95.3853 41.9054 95.2755 41.6989C95.2311 41.6179 95.1893 41.5342 95.1475 41.4558C95.1265 41.414 95.1082 41.3748 95.0873 41.333C95.022 41.1944 94.9488 41.069 94.873 40.9487C94.8495 40.9095 94.8233 40.8703 94.7972 40.8285C94.7449 40.7501 94.6926 40.669 94.6377 40.588C94.5829 40.507 94.528 40.4233 94.4705 40.3345L93.1766 38.5074C93.1295 38.442 93.0746 38.3714 93.0119 38.2904C92.991 38.2643 92.9701 38.2355 92.9466 38.2094C92.6956 37.9035 92.3454 37.5167 91.9716 37.1194L91.8697 37.0122C91.8357 36.9756 91.7991 36.939 91.7651 36.9051C91.6945 36.8319 91.6266 36.7587 91.5586 36.6881C91.2345 36.3535 90.9182 36.0346 90.649 35.7732C90.5758 35.7001 90.5052 35.6321 90.4399 35.572C90.419 35.5511 90.398 35.5302 90.3771 35.5119C90.3693 35.504 90.3641 35.4988 90.3588 35.4936C90.2569 35.3968 90.168 35.3158 90.1001 35.2531C89.8282 35.01 89.4806 34.7852 89.2349 34.5473C88.7409 34.0638 88.056 33.5201 87.4888 33.1463C86.6785 32.6105 85.9519 32.0511 85.0867 31.5754C84.888 31.4656 84.7285 31.3767 84.5665 31.2826C82.3891 30.0175 81.2364 29.615 78.9362 28.9249C78.7245 28.8596 78.5415 28.8517 78.3063 28.789C77.7051 28.6243 76.7249 28.5616 76.0871 28.5407C75.729 28.5302 74.9135 28.4936 74.8377 28.9118C75.2872 28.9354 75.6819 29.0451 76.0897 29.1392C76.3615 29.202 76.419 29.1758 76.6752 29.2699C76.7719 29.3039 78.0031 29.5156 78.2174 29.6123L79.642 30.0907C79.757 30.1299 79.8014 30.143 79.885 30.1743L81.7932 30.9506C82.0703 31.0866 83.649 31.8577 83.6856 32.0668C83.6464 32.289 83.5706 32.2707 83.5732 32.4928C83.5732 32.6601 83.649 32.7333 83.6882 32.9006C83.8843 32.8248 83.751 32.9111 83.8947 32.7385C84.59 31.9021 84.3888 32.3125 84.6841 32.6418L86.0381 33.4129C86.8928 33.9435 87.0784 34.1683 87.6692 34.55C87.8469 34.665 87.9044 34.7408 88.0351 34.8401L89.2061 35.7863C89.4701 36.0163 89.6426 36.2411 89.8883 36.4581C90.1706 36.7064 90.3196 36.8632 90.4948 37.2475C90.7718 37.3233 90.7744 37.1664 90.8346 37.4618C90.8738 37.65 90.764 37.6683 90.9313 37.7624C91.2136 37.9271 91.1221 37.582 91.5821 38.1728L91.6971 38.3035L92.0552 38.706L92.646 39.3752C92.9675 39.7542 93.2707 40.1541 93.5504 40.5723C93.6628 40.7396 93.7673 40.9095 93.8719 41.082C93.9215 41.1683 93.9738 41.2545 94.0209 41.3408C94.0392 41.3748 94.0575 41.4061 94.0758 41.4349C94.1411 41.5394 94.2038 41.6309 94.2692 41.7224C94.277 41.7355 94.2875 41.7486 94.2979 41.7616C94.3162 41.7878 94.3345 41.8139 94.3528 41.8427C94.3894 41.8975 94.4286 41.9577 94.4652 42.023C95.4376 43.7299 95.9212 44.7963 96.6164 46.5189C96.7262 46.7933 96.8282 47.0338 96.9275 47.3422C96.9432 47.3919 96.9589 47.439 96.9745 47.4782C96.985 47.5043 96.9955 47.5278 97.0033 47.5514C97.0111 47.5723 97.0216 47.5932 97.0321 47.6115C97.0399 47.6298 97.0504 47.6481 97.0582 47.6638C97.066 47.6794 97.0739 47.6925 97.0817 47.7056C97.1654 47.8441 97.2124 47.8729 97.2124 48.1891C96.9693 48.312 96.7576 48.3747 96.5093 48.5394C96.3028 48.6779 96.3864 48.5577 96.3342 48.759C96.5433 48.8322 96.8229 48.7537 97.1392 48.7381L97.3065 49.0256C97.3457 49.1223 97.3666 49.1824 97.3902 49.2451C97.4032 49.2844 97.4163 49.3236 97.4346 49.3732C97.4764 49.5039 97.513 49.6268 97.5444 49.7496C97.6071 49.9953 97.6542 50.2306 97.6986 50.4789C97.7221 50.6044 97.743 50.7324 97.7665 50.8684C97.7744 50.9102 97.7822 50.9415 97.7875 50.9703C97.7953 51.0069 97.8031 51.0357 97.811 51.0696C97.8214 51.1193 97.8293 51.1768 97.8371 51.2735C97.8371 51.284 97.8371 51.2944 97.8397 51.3023C97.8397 51.331 97.8424 51.3545 97.845 51.3755C97.8502 51.433 97.8554 51.4669 97.8607 51.4905C97.8659 51.514 97.8711 51.5297 97.8789 51.5454C97.8868 51.5689 97.8999 51.595 97.9129 51.6682C97.9155 51.6839 97.9182 51.7022 97.9208 51.7179C97.9365 51.8459 97.9129 51.9479 97.9234 52.0838C97.9417 52.306 97.9913 52.2668 98.0384 52.4419L98.1194 54.1462C98.1037 54.6506 98.1142 54.716 98.1325 54.7839L98.1403 54.7892Z" fill="#FFF9E3"/>
<path d="M49.3315 17.2121C50.1183 17.842 52.3192 19.8939 52.8629 20.5579C53.1269 20.8794 53.2758 21.1721 53.5163 21.227C53.4065 21.0153 53.336 20.8428 53.1922 20.6127C52.2956 19.1568 50.5261 17.1938 49.1982 16.0751C48.8453 15.7771 48.2546 15.2308 47.6769 14.9694C47.6325 14.9485 47.5881 14.9302 47.5462 14.9145C47.2535 14.8047 46.9738 14.7812 46.7333 14.9119C46.715 14.9223 46.6993 14.9328 46.6811 14.9432C46.668 14.9511 46.6549 14.9615 46.6418 14.972C46.6314 14.9798 46.6209 14.9903 46.6105 14.9981C46.5948 15.0138 46.5765 15.0295 46.5634 15.0452C46.553 15.0556 46.5451 15.0661 46.5347 15.0766C46.519 15.0949 46.5059 15.1132 46.4955 15.1314C46.4824 15.1471 46.4746 15.1602 46.4641 15.1785C46.4536 15.1942 46.4458 15.2099 46.438 15.2282C46.2759 15.534 46.2707 15.9391 46.3883 16.1404C46.8875 16.0829 46.9555 15.3536 47.7214 15.8424C47.7423 16.4724 47.4182 16.177 48.4271 16.2633C48.4088 16.9455 48.2834 16.373 49.3315 17.2121Z" fill="#FFF9E3"/>
<path d="M86.506 71.578C86.4407 71.301 86.4381 70.7494 86.3858 70.4044C86.3335 70.0515 86.2577 69.6673 86.2577 69.2752C86.0512 69.2046 86.0748 69.1471 85.8996 69.1079C85.7297 69.2831 85.7585 69.4373 85.782 69.683C85.8081 69.9496 85.7689 70.2241 85.7716 70.4907C85.7742 70.7939 85.8578 70.8723 85.8578 71.1938C85.8578 71.9753 85.816 71.8812 85.8735 72.7569C85.8892 73.0235 85.8918 73.2195 85.897 73.5254C85.9048 74.2285 86.0356 74.0717 86.0094 74.9865C85.6644 75.0257 85.4683 75.1198 85.0423 75.1251L85.0527 75.4178L85.288 75.4884C85.7951 75.5851 85.8526 75.4361 85.9728 75.5564C86.2081 75.789 85.7637 75.8021 85.6278 75.9693C85.6304 75.9772 85.6356 75.985 85.6382 75.9929C85.6435 76.0007 85.6461 76.0086 85.6513 76.0138C85.6592 76.0269 85.667 76.0347 85.6774 76.0451C85.6827 76.0504 85.6853 76.053 85.6905 76.0582C85.6958 76.0634 85.701 76.0661 85.7036 76.0687C85.7036 76.0687 85.7088 76.0713 85.7114 76.0739C85.7114 76.0739 85.714 76.0765 85.7167 76.0765C85.7167 76.0765 85.7219 76.0791 85.7245 76.0817C85.7271 76.0843 85.7323 76.087 85.735 76.0896C85.7402 76.0948 85.748 76.0974 85.7532 76.1C85.7611 76.1053 85.7689 76.1079 85.7768 76.1131C85.782 76.1131 85.7872 76.1157 85.7898 76.1183C85.8003 76.1236 85.8134 76.1288 85.8264 76.134C85.8395 76.1392 85.8552 76.1471 85.8656 76.1549C85.8735 76.1575 85.8813 76.1628 85.8892 76.168C85.9022 76.1758 85.9127 76.1863 85.9258 76.1994C85.931 76.202 85.9336 76.2072 85.9362 76.2124C85.9624 76.2438 85.9833 76.2882 85.999 76.351C86.0042 76.3666 86.0068 76.3849 86.0094 76.4085C86.0146 76.4398 86.0173 76.4738 86.0199 76.5104C86.0303 76.6594 86.0068 76.8424 86.0094 76.9966C86.0094 77.2109 86.0538 77.2475 86.0486 77.4279L85.9728 79.0825L85.9336 79.9163C85.9205 80.4521 85.8709 80.1045 85.8892 80.6717C85.8892 80.7214 85.8918 80.7815 85.8944 80.8468L86.6498 80.6612C86.6864 80.4469 86.6864 80.2718 86.6916 80.0391C86.6969 79.7934 86.757 79.553 86.7596 79.3909L86.7988 78.0369C86.8563 77.8017 86.7805 74.2311 86.7465 73.826L86.5113 71.578H86.506Z" fill="#FFF9E3"/>
<path d="M64.539 62.9654C69.6884 61.912 75.2115 62.176 78.7193 62.5707C78.6592 60.9606 78.5232 59.2903 78.2958 57.5259C78.2409 57.2619 78.2828 57.1417 78.2096 56.8725L77.7966 55.0035C77.2032 52.5935 76.5445 50.4214 75.2847 48.3931L74.1189 46.4875C73.0942 46.4353 73.2328 47.0835 70.9143 45.8498C70.0229 45.374 68.98 44.1037 68.6559 43.9547C68.6114 44.3991 68.6872 44.7728 68.6742 45.2277L68.4755 52.7713L68.1906 55.4531C68.3422 55.4401 68.4964 55.4296 68.6533 55.4218C71.6488 55.2754 73.4419 56.7365 73.7268 57.4423C72.4381 56.0752 70.564 56.5379 70.1196 56.8019C69.6674 57.0711 68.9329 57.8448 67.7515 58.297C67.7253 58.3833 67.6966 58.4721 67.6626 58.5532C67.179 59.7582 66.6746 60.8089 65.5297 61.3631C63.2556 62.4688 60.5685 61.1984 60.0876 57.8762C60.051 57.6122 59.9752 57.3116 59.9517 57.1312L59.7609 52.9177C59.7713 52.6066 59.7452 52.3165 59.719 52.0655C59.6694 51.5663 59.719 51.6839 59.7321 51.2579L59.3191 44.6265C59.2747 44.1168 59.1649 43.5835 59.1701 43.0111C59.1754 42.6791 58.8774 40.1018 58.6656 39.9529C58.5323 39.8561 58.1533 39.9607 57.8841 39.9581C57.3901 39.9529 57.3509 39.8378 57.3195 40.311L56.6608 47.0312C56.4935 48.7015 56.5484 51.4696 56.4883 53.3646C56.4778 53.6888 56.5432 54.0129 56.538 54.1958L56.4543 54.7212C56.4465 55.0244 56.517 54.9591 56.5118 55.1761C56.4778 56.4568 56.4778 57.309 55.7512 58.4199C54.5749 60.2156 51.7729 60.0927 50.2359 58.4748C49.2165 57.4005 48.7355 55.6309 48.4977 54.1697C48.4637 53.9528 48.4768 53.7698 48.435 53.5685C48.3696 53.2444 48.3539 53.3934 48.3539 52.9987C48.3539 52.8941 48.3644 52.8027 48.3539 52.6981C48.3095 52.3034 48.3487 52.6772 48.2755 52.4053L48.0115 49.9692C48.0193 49.7104 48.0899 49.6739 48.0925 49.517C48.0978 49.334 48.0167 49.2948 47.988 49.1223C47.8311 48.1996 48.035 47.2351 47.9409 46.2993C47.8991 45.8864 47.9148 45.4446 47.9279 44.9584C47.3554 45.3427 46.9215 46.0118 46.3674 46.43L45.761 46.9502C44.935 47.8102 43.9286 48.5237 42.9354 49.1668C41.7983 49.9013 40.3581 50.2855 39.0616 49.7261C38.8839 49.6503 38.5728 49.3916 38.4656 49.2948C38.2591 49.3706 38.3219 49.3942 38.1049 49.5039C37.6658 49.7209 37.373 49.8307 37.1221 49.8803C37.1665 49.321 37.2188 48.7956 37.2267 48.38C37.2397 47.5697 37.3495 47.5801 38.2408 47.8128C38.4866 47.8755 38.6486 48.0114 38.8865 47.8311C38.7479 47.5409 38.0187 47.5906 37.3783 47.1096C37.3495 46.83 37.4175 46.7568 37.4619 46.5921C37.5011 46.4483 37.5403 46.1686 37.5456 46.0118C37.5691 45.3976 38.0919 43.4032 38.3036 42.6948C38.5963 41.7146 38.9989 40.7239 39.4223 39.8248C39.621 39.4039 39.9346 39.498 40.3529 39.5294C40.1542 39.1687 40.2248 39.1713 39.9216 39.0093C39.7752 38.9308 39.7674 38.9596 39.7517 38.9204C39.7464 38.9099 39.7438 38.8969 39.736 38.8759C39.736 38.8759 39.736 38.8759 39.736 38.8707C39.736 38.8603 39.7308 38.8498 39.7255 38.8393C39.7255 38.8341 39.7203 38.8263 39.7177 38.8184C39.8249 38.3349 40.1699 38.4525 40.3006 38.0839C40.4966 37.5298 40.426 37.7938 40.8155 37.237C40.9175 37.0933 40.9645 36.9966 41.0874 36.858C41.2259 36.7012 41.2677 36.5836 41.3801 36.445C41.55 36.2359 41.8009 35.9615 42.0022 35.7105C42.3629 35.2583 43.4869 34.1474 44.0201 33.6665C44.2292 33.4783 44.5795 33.2065 44.6318 32.9555C44.4514 32.8457 44.4775 32.8431 44.2711 32.8379C43.7483 32.8248 40.9462 35.4309 40.4626 36.0896C40.2666 36.3562 40.0131 36.6359 39.8327 36.9286L38.7427 38.7217C38.5754 39.0145 38.4473 39.336 38.2853 39.6758C38.267 39.7124 38.2513 39.749 38.2356 39.783C38.1703 39.9215 38.1154 40.0391 38.0553 40.1698C38.0265 40.2352 37.9612 40.3685 37.935 40.4312L37.1247 42.917C37.0332 43.3091 36.9365 43.6881 36.8581 44.0723C36.7483 44.6108 36.4399 47.3919 36.4242 48.0376L36.4713 49.8228C36.4713 49.8516 36.4713 49.8803 36.4713 49.9091C36.2465 49.896 35.9877 49.8673 35.6217 49.8568L35.4806 52.5073C35.4649 52.8445 35.3996 52.8889 35.3917 53.1817L35.3708 58.2421C35.3787 59.2589 35.4414 60.2443 35.214 61.2324C38.3872 61.2481 42.2009 61.5356 45.7949 62.4714C52.6537 64.254 52.2538 65.4277 55.0899 65.5662C57.9285 65.5766 57.5913 64.3847 64.5338 62.9654H64.539ZM42.8073 57.654C40.8599 57.3456 39.8432 56.0491 39.2655 55.6648C38.8368 55.3799 36.9888 54.8179 35.6296 56.1144C35.9511 55.4244 37.82 54.0573 40.8051 54.3631C46.7124 54.9669 47.1071 58.7806 47.1071 58.7806C45.6407 57.7272 44.5586 57.9311 42.8099 57.654H42.8073Z" fill="#FFF9E3"/>
<path d="M87.2562 54.567C87.2745 53.9527 87.1804 53.2313 87.0732 52.6406C87.0497 52.5229 87.0628 52.4681 87.0523 52.3478L86.7779 50.7926C86.7413 50.5625 86.6916 50.4789 86.6367 50.2463C86.3309 48.9759 85.8735 47.7003 85.3219 46.5346L84.1352 44.1847C83.7484 43.4214 83.2099 42.6869 82.7264 41.9864L82.1226 41.1343C81.456 40.3031 81.2757 39.9816 80.502 39.1425C80.3687 38.9988 80.319 38.9021 80.1831 38.7557C80.0707 38.6328 79.9792 38.5178 79.8563 38.3819L76.853 35.5903C75.4232 34.5683 73.6562 33.1202 72.0409 32.3517C70.9012 31.8106 67.8953 30.0567 66.902 30.0306C66.8236 30.0306 65.8721 30.2031 66.7556 30.6161C67.4195 30.9271 68.7604 31.2748 69.5917 31.889C70.0988 32.2654 69.806 31.889 70.0256 32.0406C70.3523 32.1896 70.1092 32.4562 70.5248 32.6889C71.1861 33.06 70.9273 32.5451 71.5128 32.9581C72.4225 33.5959 73.583 33.9958 75.1984 35.2635C75.8597 35.7837 76.7118 36.4398 77.3104 37.0567C77.4777 37.2292 77.4673 37.1847 77.645 37.318L78.7533 38.4812C79.0251 38.8446 79.4486 39.1661 79.5583 39.349C79.676 39.5398 79.6681 39.5189 79.8041 39.6941C79.9008 39.8169 79.9504 39.8796 80.0471 39.9973L80.549 40.6194C80.7006 40.8494 80.6091 40.8912 80.5987 41.3016C80.7372 41.3042 81.3619 41.2362 81.3489 41.7486C81.341 42.0858 80.3713 42.2191 80.3582 42.7497C80.3294 43.8292 81.3619 42.355 81.7801 42.4491C81.9004 42.5249 81.8742 42.504 81.971 42.653L82.9878 44.2683C83.1969 44.6552 84.049 46.0562 84.0725 46.2784C83.7432 46.4954 83.3981 46.4483 83.1812 46.8299C83.1707 46.8482 83.1054 46.9998 83.1028 47.0155C83.04 47.418 83.4609 47.2194 83.751 47.154C83.9575 47.1096 84.2163 47.0704 84.4228 47.0443C84.6763 47.3266 84.9455 47.7134 84.3496 47.7944C83.9915 47.8441 83.4922 48.0009 83.3615 48.3512C83.5811 48.6988 83.8791 48.4871 84.2267 48.3669C84.8593 48.1473 85.0004 48.1839 85.1573 48.508C84.9351 48.9419 84.279 48.7276 84.2555 49.3105C84.3234 49.2817 85.3664 48.9733 85.5493 49.2347C85.6957 49.4412 85.6278 49.5327 85.4448 49.6006C85.0423 49.747 84.1117 49.9431 84.0699 50.424C84.956 50.7063 85.6826 49.8254 85.9623 50.5704C86.1767 51.1428 86.3309 51.8721 86.4851 52.2955C86.5661 52.5177 86.5557 52.4576 86.6054 52.7059C86.6446 52.9124 86.6184 52.766 86.6602 52.9176C86.6812 52.9934 86.6864 53.0457 86.7099 53.132C86.7883 53.4456 86.8798 53.5894 86.9164 54.0704C86.9399 54.3788 87.021 54.7212 87.102 54.9826C87.251 55.4479 87.0027 55.4191 87.3294 55.8896C87.3189 55.5315 87.2301 55.6883 87.264 54.5696L87.2562 54.567Z" fill="#FFF9E3"/>
<path d="M42.1747 76.0321C46.5739 76.1472 52.0186 70.9821 50.5731 66.9306C50.3143 66.2066 49.4465 65.561 48.1971 65.0199C48.3147 65.0931 48.4219 65.1846 48.5108 65.3022C48.9002 65.8171 48.8009 66.549 48.2886 66.9411C48.1892 67.0169 45.7923 68.8152 43.0504 68.7421C40.0993 68.6636 37.9638 66.7163 37.8749 66.6327C37.4018 66.1935 37.373 65.4538 37.8122 64.9807C38.2487 64.5076 38.9858 64.4788 39.4615 64.9153C39.4929 64.9441 41.0717 66.3504 43.1105 66.4052C45.0082 66.4549 46.8536 65.0931 46.8719 65.08C47.162 64.8578 47.5227 64.8003 47.8547 64.8787C45.1049 63.7888 40.7763 63.1797 36.9418 63.3339C31.1076 63.5692 30.1509 65.4852 31.6304 68.3735C33.1072 71.2618 37.7756 75.9171 42.1773 76.0321H42.1747Z" fill="#FFF9E3"/>
<path d="M89.1983 46.6156C89.0676 46.728 89.0572 46.7698 88.9029 46.8587C88.686 46.9815 88.6755 46.9136 88.618 47.1383C88.6311 47.1462 88.652 47.1383 88.6598 47.154L89.4388 47.1305C89.8465 47.1096 89.5878 47.418 89.7551 47.8206L90.0295 48.5577C90.4791 49.7679 90.4817 49.1824 89.9223 49.7627C90.2282 50.3168 90.2491 49.4699 90.6647 51.1193L92.0396 55.9915L91.9429 56.0673C91.7834 56.2006 91.7704 56.2294 91.7285 56.415L91.9769 56.4437C91.8462 56.9822 91.2946 57.0397 91.1979 57.3063C92.531 57.403 91.9978 55.8687 93.093 60.2469C93.14 60.4351 93.2001 60.8899 93.2263 61.1069L93.3099 61.5434C93.3727 62.1446 93.5086 62.5524 93.6288 63.117C93.6994 63.4385 93.7203 63.611 93.6994 63.726C93.6968 63.7495 93.6915 63.7678 93.6837 63.7887C93.6262 63.9455 93.4615 64.0031 93.2106 64.3559C93.1322 64.4657 93.1583 64.2984 93.1452 64.5154C93.1296 64.7977 93.1531 64.6304 93.1923 64.701C93.323 64.7114 93.357 64.633 93.4668 64.6095C93.4772 64.6095 93.4877 64.6042 93.5007 64.6042C93.5112 64.6042 93.5243 64.6042 93.5373 64.6042C93.5713 64.6042 93.6079 64.6121 93.655 64.6225C93.9765 64.7036 93.8327 64.8081 94.1202 64.8526C94.1333 64.8238 94.1438 64.7977 94.1542 64.7768C94.1594 64.7663 94.162 64.7559 94.1673 64.7454C94.1751 64.7245 94.183 64.7088 94.1856 64.6957C94.2091 64.6304 94.1986 64.5886 94.1673 64.4579C94.1647 64.4448 94.162 64.4317 94.1568 64.4187C94.1464 64.3716 94.1359 64.335 94.1307 64.3089C94.1307 64.301 94.1281 64.2932 94.1255 64.2854C94.1255 64.2801 94.1255 64.2775 94.1255 64.2749C94.115 64.2174 94.1255 64.2226 94.1385 64.186C94.1385 64.1834 94.1385 64.1782 94.1411 64.1756C94.1411 64.1677 94.1464 64.1573 94.149 64.1468C94.149 64.1416 94.1516 64.1337 94.1516 64.1259C94.1568 64.0972 94.1594 64.0579 94.1594 64.0057C94.1594 63.9978 94.1594 63.99 94.1594 63.9848C94.1594 63.9769 94.1594 63.9691 94.1594 63.9586C94.1594 63.9482 94.1594 63.9403 94.1594 63.9299C94.1594 63.9194 94.1594 63.909 94.1594 63.8985C94.1594 63.8645 94.1542 63.8279 94.1516 63.7887C94.1516 63.7756 94.149 63.76 94.149 63.7469C94.149 63.7469 94.149 63.7469 94.149 63.7443C94.149 63.7234 94.1464 63.6998 94.1437 63.6763C94.1385 63.6057 94.1281 63.5273 94.1202 63.4463C94.115 63.4071 94.1098 63.3653 94.1072 63.3208C94.0941 63.2058 94.0784 63.0804 94.0601 62.947C94.0418 62.7981 94.0183 62.6412 93.9974 62.4792C93.8771 61.6375 93.7255 60.72 93.6602 60.4639L92.0082 53.3411C91.8226 52.4602 90.3928 47.8546 90.1184 47.005L88.8611 43.5626C88.2913 42.1668 87.3059 40.0992 86.3074 39.0223C85.9074 38.5936 86.0224 38.5858 85.4605 38.0865C85.3193 37.961 85.2775 37.9427 85.1468 37.8016C85.0135 37.6578 85.0161 37.6448 84.8305 37.5219C84.5927 37.3625 84.1823 36.8501 83.832 36.7325C84.083 37.3285 84.8044 37.9924 85.186 38.5021C85.3559 38.7295 85.4683 38.9412 85.6277 39.1399C85.782 39.3307 85.9702 39.5816 86.0616 39.7254L86.9216 41.0167C87.0654 41.2493 87.1804 41.4741 87.3242 41.691C87.5803 42.0753 87.8391 42.619 88.0613 43.0529L88.997 45.2198C89.4701 46.5528 89.6583 46.2183 89.1983 46.613V46.6156Z" fill="#FFF9E3"/>
<path d="M102.289 51.6316C102.249 51.2082 102.153 50.7037 102.137 50.2541L101.664 47.588C101.609 47.4155 101.567 47.1384 101.533 46.9763L100.872 44.5454C100.574 43.5757 100.179 42.6216 99.7583 41.7068C99.5963 41.3539 99.4107 41.0089 99.2564 40.6508C98.616 39.1792 97.1601 37.1743 96.1721 35.8778L95.6598 35.2113C95.2729 34.7617 95.4088 34.9917 95.6754 34.4271C96.4857 32.7333 96.3315 31.165 95.4219 29.5261L94.5358 28.2061C94.1019 27.6781 93.6837 27.1919 93.0956 26.7267C92.9884 26.643 93.0015 26.6692 92.9152 26.5829C92.7793 26.4496 92.8786 26.5123 92.7218 26.3947C91.1927 25.2394 91.3626 25.323 89.6688 24.2827C87.9645 23.2345 87.3032 23.1038 85.6878 22.3746C84.9795 22.0531 84.1038 21.9276 83.4033 21.6479C83.4451 20.0822 83.4268 19.102 82.674 17.7924C81.4168 15.6046 78.5833 14.316 76.1681 13.7775L75.1931 13.5527C74.8664 13.4822 74.4952 13.456 74.1398 13.3985C73.9411 13.3672 73.7764 13.3802 73.5725 13.3567C73.3556 13.3332 73.1883 13.2495 72.9766 13.2443L72.1114 13.2731C71.7611 13.2626 71.4579 13.2574 71.1782 13.2835L69.9131 13.3436C69.0427 13.4221 67.8638 13.5972 67.0379 13.8141C66.8523 13.8638 66.4837 13.9762 66.2459 13.9762C66.055 13.5527 65.5689 13.0404 65.2369 12.7764C63.7392 11.5845 61.6219 11.5505 59.8314 12.0498C58.8512 12.3242 57.5364 12.8496 56.781 13.3881C56.3576 13.6887 55.9001 13.9605 55.4767 14.2585C55.2467 14.4232 55.0271 14.5931 54.8337 14.7813L54.256 15.3302C53.9868 15.2962 53.5424 14.7185 53.1869 14.3108C53.1216 14.235 53.0589 14.167 53.0014 14.1069C51.7676 12.8261 50.3483 11.5218 48.5813 11.0251C46.2811 10.3743 43.8397 11.1114 42.7654 13.4038C42.6713 13.605 42.6583 13.6312 42.5825 13.8795C42.525 14.0703 42.4648 14.1853 42.4282 14.3735C41.9159 14.4336 40.8965 14.3866 40.5436 14.4441L38.7375 14.6715C37.6213 14.8335 36.4974 14.9982 35.3969 15.3171C34.7043 15.5158 34.0273 15.6961 33.3738 15.9444C32.7125 16.198 32.1322 16.4306 31.5598 16.8149C31.2618 17.0135 31.0291 17.1651 30.7625 17.369C29.7614 18.1349 28.8361 19.2588 28.4728 20.5109C28.4127 20.7174 28.2375 21.4283 28.1591 21.559C26.2719 21.5094 25.4538 21.7995 23.9874 22.6725C23.7338 22.8242 23.4358 23.0908 23.2607 23.2973C22.8216 23.8096 22.4269 24.3193 22.2309 25.0067C21.9486 26 21.8858 26.745 22.1472 27.7591C22.325 28.4466 22.9444 29.6254 23.5038 30.0384C23.5352 30.062 23.5665 30.0829 23.5979 30.1012C23.5378 30.1717 23.4123 30.2685 23.2529 30.3756C22.8268 30.6579 22.1681 31.0186 21.9303 31.1729C21.7656 31.28 21.6689 31.3401 21.5434 31.4369C20.6338 32.1191 19.6118 32.7464 18.7858 33.5306L17.3481 34.8506C15.921 36.168 14.7134 37.8199 13.5946 39.3961L13.0928 40.2561C12.2537 41.5525 10.8396 44.3206 10.4397 45.9543C10.3639 46.2627 10.2123 46.7359 10.1103 47.0704C9.76529 48.2075 9.66074 49.3994 9.44902 50.5783C9.27127 51.5872 9.48822 53.1712 9.81496 54.0782C10.309 55.4505 11.6055 56.747 13.1137 56.9561C13.8508 57.058 13.524 57.2724 13.4221 57.7167C13.3855 57.8762 13.3254 58.0774 13.2627 58.2761L12.915 59.6432C12.8863 59.7869 12.8627 59.7817 12.8314 59.9359L12.4524 61.6375C12.3086 62.1629 12.1099 63.6215 12.0995 64.126C12.089 64.6121 12.0498 65.0304 12.1256 65.4773C12.2642 66.2955 12.3478 66.9646 12.6928 67.639C12.8915 68.0259 13.1137 68.3291 13.3568 68.6453C14.1566 69.6883 15.5602 70.3287 16.8803 70.347C18.5113 70.3679 18.3022 69.555 18.2133 72.9452C18.1898 73.8809 18.1767 74.7304 18.2656 75.5826C18.2917 75.8256 18.2761 75.9563 18.2787 76.1968C18.412 77.2894 18.4407 85.7192 25.8746 83.8685C26.5359 83.7039 27.1319 83.4582 27.6573 83.1732C28.41 83.8999 30.0646 84.5011 31.8394 83.8424C32.7386 83.5104 33.8129 82.6923 34.1945 81.9604C35.0284 83.8136 35.8988 85.0866 37.19 86.4118C43.973 93.3752 48.3461 98.3991 53.796 98.4017C59.2459 98.4043 64.5834 93.3673 66.4419 91.8618C68.086 90.5287 74.5684 86.8588 77.279 76.7327C77.279 76.7327 77.279 76.73 77.279 76.7274C77.5901 75.3186 77.8541 73.9463 78.0736 72.5818C75.4467 75.2846 72.1637 78.0082 69.3328 78.6016C64.0972 79.702 60.1163 75.5068 58.8068 73.4888C57.5077 71.4892 56.6007 68.5303 55.0193 68.4336C53.4353 68.4493 52.3714 71.3559 50.9704 73.2824C49.5563 75.2297 45.3584 79.208 40.1882 77.8331C37.2005 77.0385 33.826 73.7921 31.2775 70.7809C31.6722 74.1292 32.2916 76.5314 32.6733 77.8305C32.6837 77.8723 32.6968 77.9141 32.7099 77.9507C32.885 78.5362 33 78.8734 33.0078 78.9362C33.4365 82.7838 28.959 82.8936 27.9369 82.1146C27.9003 82.0859 27.8664 82.0597 27.835 82.0336C27.801 82.0075 27.7696 81.9813 27.7383 81.9526C27.7252 81.9421 27.7121 81.9317 27.7017 81.9212C27.7017 81.9212 27.6965 81.916 27.6938 81.9134C27.6677 81.8898 27.6416 81.8663 27.618 81.8402C27.5893 81.8114 27.5632 81.7853 27.537 81.7565L27.5161 81.7356C27.4952 81.7121 27.4743 81.6912 27.456 81.6677C27.4377 81.6467 27.4194 81.6258 27.4037 81.6049C27.3985 81.5997 27.3959 81.5918 27.3906 81.5866C27.3854 81.5814 27.3828 81.5762 27.3776 81.5709C27.354 81.5422 27.3357 81.5134 27.3148 81.4847C27.2965 81.4585 27.2756 81.4298 27.2599 81.4037L27.2521 81.3906C27.2521 81.3906 27.2443 81.3723 27.2364 81.3644C27.2103 81.32 27.1841 81.2756 27.158 81.2285L27.1371 81.1893C27.1214 81.1553 27.1031 81.1187 27.0874 81.0821C27.0796 81.0691 27.0744 81.0534 27.0691 81.0377C27.0038 80.8783 26.9489 80.7162 26.9018 80.5515C26.8966 80.5306 26.8914 80.5123 26.8862 80.4914C26.7973 80.1542 26.7241 79.7648 26.6222 79.2916C26.6065 79.2106 26.5882 79.127 26.5673 79.0433C26.3503 79.1505 26.4052 79.1923 26.3294 79.4459C26.3189 79.4825 26.3085 79.5164 26.2954 79.5504C26.0001 80.0627 25.4799 80.8443 24.7977 81.32C23.9377 81.7565 22.9183 81.7252 22.1786 81.1004C22.1524 81.0795 22.1263 81.056 22.1002 81.0325C22.0845 81.0194 22.0714 81.0063 22.0557 80.9907C21.9146 80.8495 21.7865 80.6901 21.6741 80.5123C21.6558 80.4836 21.6375 80.4522 21.6192 80.4208C21.6035 80.3921 21.5852 80.3607 21.5695 80.3294C21.5539 80.298 21.5382 80.2666 21.5225 80.2326C21.1304 79.404 20.8115 77.6684 20.7566 76.5732C20.7383 76.2125 20.707 75.8518 20.6861 75.5407L20.5763 71.7036C20.5815 71.4945 20.6312 71.5284 20.6364 71.3794L20.6547 70.6763C20.6599 70.4829 20.6076 70.5169 20.6129 70.3522L20.7044 69.0583C20.7383 68.7133 20.754 68.3657 20.7775 67.9187C20.7958 67.5606 20.8899 67.1032 20.9135 66.7346C20.9579 66.0027 21.1095 63.7679 21.2611 63.2059C21.3186 62.9941 21.614 61.0834 21.6035 60.9788C21.3735 61.2115 21.0807 62.0349 20.9422 62.4243L20.1711 64.8918C19.8914 65.9112 19.4915 66.9463 18.6159 67.5266C18.4407 67.6442 18.182 67.7514 17.9572 67.8089C17.9389 67.8141 17.9206 67.8194 17.9023 67.822C16.7705 68.0886 15.6439 67.6913 15.0244 66.7398C14.4572 65.8694 14.567 64.7716 14.5957 63.7522C14.601 63.5274 14.6741 63.577 14.7055 63.3235C14.7212 63.1876 14.7107 63.0543 14.7317 62.9105C14.8258 62.1995 14.9878 61.6219 15.1237 60.9527L15.3041 60.2051C15.3485 60.03 15.3903 59.8575 15.4348 59.6824C15.521 59.3426 15.6125 59.0054 15.7066 58.6682C15.7171 58.629 15.7275 58.5872 15.7406 58.548C15.8922 58.0095 16.0543 57.4789 16.2294 56.9587L16.5457 56.0569C16.5666 55.9994 16.5823 55.9445 16.6006 55.8923L17.5102 53.5711C18.0251 52.3034 18.608 51.0017 19.2275 49.7732C20.192 47.8624 20.8377 47.3449 21.2297 45.327L21.9041 43.1993C21.9799 43.0137 22.4086 42.1015 22.3302 41.9577C22.2178 42.0701 22.1472 42.1668 22.04 42.2923C21.9172 42.4387 21.8335 42.4909 21.7159 42.6216L20.2156 44.3781C19.7346 44.9846 19.3425 45.6563 18.9243 46.2941C17.701 48.1735 17.2227 49.6608 16.5169 51.6526C16.3915 52.0028 16.3313 52.3531 16.2216 52.6667C16.1353 52.9124 15.9732 53.3202 15.8452 53.5424C15.738 53.7254 15.6151 53.8822 15.4792 54.0181V54.0129C15.3198 54.1697 15.1446 54.2952 14.9564 54.3893C14.844 54.4442 14.7264 54.4886 14.6088 54.5226C14.5618 54.5357 14.5173 54.5461 14.4703 54.5566C14.4232 54.567 14.3762 54.5749 14.3317 54.5801C14.3004 54.5827 14.269 54.5853 14.2376 54.5905C14.2298 54.5905 14.2219 54.5932 14.2141 54.5905C14.1854 54.5905 14.1566 54.5932 14.1305 54.5932C13.971 54.5984 13.809 54.5801 13.6521 54.5435C13.6025 54.533 13.5528 54.52 13.5031 54.5043C13.4796 54.4964 13.4535 54.4886 13.4299 54.4781C13.2365 54.4076 13.0483 54.3056 12.8784 54.1697C11.9688 53.4431 11.8512 52.272 11.8799 51.1794C11.893 50.7011 11.9583 50.4763 12.008 50.0476C12.042 49.7758 12.0916 49.6556 12.1204 49.4517C12.157 49.1929 12.1335 49.1249 12.1988 48.8714C12.2511 48.6701 12.2615 48.5107 12.3373 48.299L12.6118 47.2639C12.6458 47.1488 12.6379 47.1123 12.6641 46.9946L12.9307 46.1922C13.0562 45.7086 13.2966 45.1806 13.4744 44.7258C13.7149 44.1141 14.0364 43.4659 14.3317 42.9039L15.3119 41.1579C15.7694 40.4521 16.2921 39.9006 16.7104 39.1818C16.9195 38.8237 17.3691 38.3715 17.6121 38.0761C17.7716 37.8827 17.816 37.914 17.9729 37.7311C18.4826 37.1325 19.0289 36.5391 19.6327 36.0373L19.8653 35.8203L20.3332 35.3864C21.2114 34.699 22.1185 34.0037 23.0333 33.3947C23.1875 33.2927 23.2738 33.2143 23.4097 33.1254C24.5049 32.404 25.6733 31.795 26.7659 31.1598C27.2469 30.8801 28.0598 30.6788 28.4702 30.2502C28.3212 30.0463 28.133 30.0123 27.8428 29.9208C27.6102 29.8476 27.3906 29.7797 27.1397 29.683C26.8809 29.5862 26.711 29.4791 26.4706 29.3719C25.8772 29.1053 25.357 28.6949 25.0408 28.1434C25.0199 28.1068 25.0016 28.0754 24.9833 28.0414C24.7898 27.6677 24.4919 27.2181 24.5075 26.63C24.5258 25.9582 24.6696 25.4746 25.1166 24.9754C26.0654 23.9141 27.6965 23.9168 29.0321 24.1076C29.1472 24.1232 29.2569 24.1415 29.3667 24.1598C29.9026 24.2487 30.3548 24.3297 30.8854 24.4474L32.9843 25.093C33.0837 25.127 33.1804 25.1636 33.3006 25.2132C33.379 25.2446 33.3529 25.2394 33.4522 25.2786C33.5123 25.3021 33.5724 25.3204 33.6143 25.3361C33.8652 25.4328 34.0377 25.5138 34.2782 25.5949C34.6154 25.7046 34.5997 25.7517 34.8768 25.8981C35.0336 25.9373 36.5366 25.3152 36.8241 25.208C37.5795 24.9335 37.5455 25.1975 37.2946 24.4238C37.2397 24.2539 37.2606 23.9769 37.1482 23.8148C36.202 23.8697 33.8835 25.3099 32.1348 24.3585C31.3663 23.9403 30.9272 23.3312 30.7808 22.6516C30.7808 22.6464 30.7808 22.6412 30.7782 22.6386C30.7678 22.5941 30.7599 22.5497 30.7547 22.5053C30.7495 22.4661 30.7442 22.4295 30.739 22.3902C30.739 22.385 30.739 22.3798 30.739 22.3772C30.7364 22.3589 30.7364 22.3432 30.7338 22.3249C30.7312 22.2831 30.7286 22.2386 30.7259 22.1968C30.7259 22.1498 30.7259 22.1001 30.7259 22.0531C30.7416 21.4571 30.956 20.8376 31.3428 20.2678C31.9231 19.4104 32.7334 18.9216 33.6613 18.4877C34.4507 18.1192 35.1251 17.9179 35.9851 17.6931C36.615 17.5284 37.3835 17.2984 38.0343 17.2069C38.0735 17.2017 38.1154 17.1965 38.1598 17.1886C38.4813 17.1468 38.9649 17.0815 39.4641 17.024C39.5295 17.0161 39.5948 17.0083 39.6575 17.0004C39.6654 17.0004 39.6706 17.0004 39.6758 17.0004C39.7281 16.9952 39.783 16.99 39.8353 16.9821C40.0209 16.9612 40.2012 16.9429 40.3711 16.9273C40.4705 16.9194 40.5646 16.909 40.6508 16.9037C40.7188 16.8985 40.7815 16.8933 40.8416 16.8907C40.8965 16.888 40.9462 16.8854 40.9932 16.8828C41.0821 16.8802 41.1605 16.8802 41.2232 16.8828L44.5533 17.105C44.799 16.9952 44.5533 16.7364 44.5586 16.6057L44.5847 15.5785C44.5847 15.5576 44.6814 15.2256 44.7075 15.1106C44.7337 14.9904 44.7964 14.8414 44.8513 14.7159C44.9794 14.4336 45.1075 14.2141 45.2931 14.0154C45.7034 13.5737 45.9857 13.4534 46.5242 13.3175C46.783 13.2522 47.0391 13.2339 47.2874 13.2574C47.311 13.2574 47.3371 13.26 47.3632 13.2652C47.3972 13.2704 47.4338 13.2731 47.4678 13.2809C47.4992 13.2861 47.5331 13.2914 47.5671 13.2966C47.5723 13.2966 47.5776 13.2966 47.5802 13.2992C47.6037 13.3044 47.6272 13.3097 47.6534 13.3149C47.7083 13.328 47.7658 13.3436 47.8207 13.3593C47.8468 13.3672 47.8729 13.375 47.9017 13.3828C47.9331 13.3907 47.9618 13.4011 47.9932 13.4142C48.1474 13.4691 48.2964 13.5344 48.4428 13.6076C48.4689 13.6233 48.4977 13.6364 48.5238 13.6495C48.6676 13.7253 48.8087 13.8115 48.9472 13.903C49.0021 13.9396 49.057 13.9762 49.1093 14.0154C49.1642 14.0546 49.2165 14.0938 49.2687 14.133C49.2949 14.1513 49.321 14.1722 49.3472 14.1931C49.4517 14.2742 49.5537 14.3552 49.653 14.4362C49.7027 14.4781 49.7523 14.5199 49.7994 14.5617C49.8255 14.5826 49.849 14.6035 49.8726 14.6244C49.9562 14.6976 50.0372 14.7682 50.1183 14.8388C50.2202 14.9303 50.2803 14.9851 50.4058 15.0949C51.0854 15.6804 52.6485 17.2749 53.153 17.9205C53.281 18.0852 54.0757 19.0497 54.2064 19.1046C54.3161 19.034 54.222 19.1046 54.3031 19.0184C54.3031 19.0184 54.3763 18.9295 54.3789 18.9269L54.7291 18.4642C54.8938 18.2603 55.0506 18.0277 55.2493 17.8447C55.3774 17.7271 55.4244 17.6827 55.5368 17.5363C56.0753 16.8305 55.9733 17.1494 56.3916 16.7155C56.9588 16.13 58.4539 15.1681 59.11 14.9093C59.408 14.7917 59.7138 14.6715 60.0275 14.5643C60.1242 14.5329 60.2209 14.499 60.3202 14.4702C60.3673 14.4571 60.4117 14.4415 60.4587 14.4284C60.511 14.4127 60.5633 14.3996 60.6156 14.384C60.6469 14.3761 60.6757 14.3683 60.7071 14.3604C60.7175 14.3604 60.7254 14.3552 60.7358 14.3526C60.8351 14.3291 60.9345 14.3055 61.0338 14.2872C61.0939 14.2768 61.154 14.2637 61.2141 14.2559C61.2743 14.248 61.3344 14.2402 61.3945 14.2324C61.4546 14.2245 61.5147 14.2193 61.5749 14.2141C61.6271 14.2114 61.6768 14.2088 61.7291 14.2088C61.7474 14.2088 61.7657 14.2088 61.784 14.2088C61.8363 14.2088 61.8885 14.2088 61.9382 14.2088C62.2126 14.2167 62.4871 14.2559 62.7616 14.3343C62.8034 14.3474 62.8478 14.3604 62.887 14.3735C62.9289 14.3866 62.9681 14.4023 63.0073 14.4153C63.0465 14.431 63.0857 14.4467 63.1223 14.4624C63.151 14.4754 63.1798 14.4885 63.2059 14.499C63.2216 14.5068 63.2373 14.5147 63.2556 14.5225C63.2817 14.5356 63.3079 14.5486 63.334 14.5643C63.368 14.5826 63.3993 14.6009 63.4307 14.6192C63.4621 14.6375 63.4908 14.6584 63.5222 14.6767C63.5509 14.695 63.5797 14.7159 63.6058 14.7342C63.6346 14.7551 63.6607 14.776 63.6869 14.7969C63.6947 14.8022 63.7026 14.81 63.7104 14.8152C63.7548 14.8518 63.794 14.8884 63.8333 14.925C63.8542 14.9459 63.8777 14.9669 63.896 14.9904C63.9247 15.0191 63.9509 15.0505 63.977 15.0819C64.0032 15.1132 64.0267 15.1446 64.0502 15.176C64.058 15.1838 64.0633 15.1916 64.0685 15.2021C64.0842 15.2256 64.0999 15.2491 64.1155 15.2701C64.1155 15.2701 64.1155 15.2701 64.1155 15.2727C64.5338 15.9157 64.5181 16.645 64.6514 16.9142C64.9232 16.9011 66.4759 16.4463 67.4953 16.2084C67.7122 16.1588 67.903 16.1196 68.0547 16.0934C68.0782 16.0882 68.0991 16.0856 68.1174 16.083C68.1435 16.0804 68.1671 16.0777 68.1906 16.0751C68.5042 16.0412 68.6114 16.0046 68.9277 15.9654L70.0334 15.8111C70.2137 15.7798 70.1248 15.8111 70.3601 15.8164C70.5797 15.8216 71.0136 15.7562 71.2331 15.7406C71.539 15.7196 71.8395 15.7536 72.148 15.7615C73.8078 15.8033 75.5878 16.0281 77.0751 16.6214C77.8854 16.9429 78.8735 17.3899 79.5191 17.9911C80.6326 19.0288 81.5396 20.3802 80.4078 21.7969C80.3712 21.844 80.332 21.8884 80.2954 21.9302C80.2771 21.9511 80.2588 21.972 80.2379 21.9903C80.0314 22.2047 79.8171 22.3458 79.5531 22.4451C79.5296 22.4556 79.5034 22.4634 79.4799 22.4713C79.4564 22.4817 79.4302 22.4896 79.4041 22.4974C79.344 22.5157 79.2812 22.534 79.2159 22.5497C79.2133 22.7771 79.2655 22.9862 79.2891 23.211C79.3309 23.5874 79.3623 23.4384 79.7779 23.4907C80.0942 23.5299 80.4392 23.5691 80.7894 23.6135C81.0744 23.6501 81.3619 23.6946 81.6416 23.7468C81.7095 23.7599 81.7801 23.773 81.8454 23.7887C81.9029 23.8017 81.9578 23.8122 82.0127 23.8253C82.0415 23.8331 82.0702 23.8409 82.099 23.8462C82.1513 23.8592 82.2035 23.8723 82.2558 23.888C82.3159 23.9037 82.3735 23.922 82.431 23.9403L83.5654 24.2775C84.6815 24.5937 85.8421 25.0459 86.8484 25.5896C87.0575 25.702 87.1699 25.7595 87.3529 25.8536C89.5067 26.9907 92.2774 28.8178 93.37 31.0605C93.4641 31.2513 93.5216 31.3767 93.587 31.5911C93.6079 31.6617 93.7333 32.1165 93.7307 32.1269C93.7176 32.6654 93.5608 33.1829 93.1086 33.5175C92.4656 33.9958 91.6632 33.9854 90.8921 33.8861C90.9313 34.1631 91.1456 34.1919 91.3416 34.3984L92.246 35.3341C92.9361 36.019 93.6419 36.7273 94.243 37.4958L95.218 38.7845C95.746 39.4824 96.2191 40.2299 96.6321 41.0272C96.8255 41.3983 97.0869 41.8322 97.249 42.2374C97.4189 42.6634 97.6568 43.0869 97.8345 43.5339C98.7363 45.8341 99.1989 47.5279 99.5701 49.9483L99.6642 50.7508C99.7191 51.0801 99.7296 51.1899 99.7348 51.4931C99.7479 52.0734 99.842 52.3086 99.821 53.064C99.8106 53.4248 99.9073 53.6548 99.9021 53.877C99.8864 54.4834 99.842 54.5174 99.7766 55.0689C99.6825 55.8635 99.3532 56.8097 98.5899 57.1966C97.8763 57.5599 96.8595 57.5024 96.2008 57.0424C95.3513 56.4464 95.0873 55.0741 94.9697 54.0782C94.9645 54.039 94.9592 53.9972 94.954 53.9554C94.9488 53.9136 94.9436 53.8743 94.9357 53.8299C94.8913 53.5319 94.8312 53.2183 94.771 52.9098C94.7266 52.6876 94.7318 52.5387 94.6848 52.3086L94.0444 49.4857C93.8353 48.7302 93.634 48.1369 93.3439 47.4102C93.059 46.6993 92.7767 46.1686 92.4499 45.5204C92.131 44.8905 91.7703 44.3311 91.3599 43.8109L90.7431 43.0242C90.5862 42.8438 90.2464 42.3916 90.0661 42.3158C90.0399 42.6059 90.7849 44.5167 90.9339 44.9506L93.4275 53.0405C93.4876 53.2679 93.5399 53.5215 93.6053 53.7567L94.6064 57.5965C94.6377 57.7429 94.643 57.8108 94.6769 57.952L94.6926 58.0382L95.3121 61.2507C95.4219 61.7578 95.5003 62.6125 95.5604 63.1614C95.7068 64.4841 95.9081 65.9452 94.9906 67.0666C94.8521 67.2338 94.6926 67.3724 94.5201 67.4822C94.4522 67.5266 94.379 67.5658 94.3058 67.5998C94.23 67.6338 94.1568 67.6651 94.0784 67.6913C94.0104 67.7148 93.9398 67.7331 93.8719 67.7488C93.8379 67.7566 93.8013 67.7645 93.7647 67.7697C93.7307 67.7749 93.6941 67.7828 93.6575 67.788C93.587 67.7984 93.5164 67.8037 93.4432 67.8089C93.4432 67.8089 93.4432 67.8089 93.438 67.8089C93.336 67.8141 93.2289 67.8141 93.1243 67.8089C93.0929 67.8089 93.0616 67.8037 93.0302 67.8011C92.9988 67.7984 92.9675 67.7958 92.9361 67.7906C92.9047 67.7854 92.8734 67.7828 92.842 67.7775C92.8106 67.7723 92.7793 67.7671 92.7479 67.7619C92.7165 67.7566 92.6878 67.7488 92.659 67.7436C92.6564 67.7436 92.6538 67.7436 92.6512 67.7436C92.6198 67.7357 92.5911 67.7305 92.5623 67.7226C92.5309 67.7148 92.4996 67.707 92.4682 67.6991C92.4421 67.6939 92.4159 67.6834 92.3872 67.6756C92.1519 67.6024 91.8984 67.4037 91.8906 67.7671L92.003 68.891L92.0291 69.1577C92.05 69.453 92.05 69.7353 92.0683 70.0124C92.0814 70.2764 92.1546 70.509 92.1493 70.7704C92.131 71.4709 92.199 72.1636 92.0239 72.8458C91.8775 73.4235 91.7912 73.8156 91.326 74.3201C91.0306 74.639 90.1236 75.0519 89.6269 75.0389C89.593 75.0389 89.5616 75.0363 89.5276 75.0336C89.4962 75.0336 89.4675 75.0284 89.4361 75.0258C89.376 75.0206 89.3159 75.0127 89.2532 75.0023C89.2323 74.9997 89.2087 74.9971 89.1878 74.9918C89.0989 74.9761 89.0075 74.9578 88.9238 74.9422C88.6206 74.8768 88.3671 74.8062 88.3069 74.8062C88.2756 75.0153 88.3226 75.133 88.3226 75.3734C88.3226 75.4989 88.3122 75.6322 88.3148 75.7577C88.3148 75.8074 88.3174 75.8466 88.3226 75.8779C88.3226 75.8884 88.3252 75.9014 88.3278 75.9093C88.3305 75.925 88.3331 75.9407 88.3383 75.9537C88.3435 75.9773 88.3488 75.9956 88.3514 76.0138C88.3514 76.0243 88.354 76.0348 88.354 76.0452C88.354 76.0557 88.354 76.0687 88.354 76.0818L88.3122 77.5926C88.2965 78.0997 88.286 78.6042 88.273 79.1087L88.2651 79.2237C93.5033 76.7614 94.3162 74.1031 94.5828 72.7282C94.7371 71.9336 94.5907 71.0187 94.6534 70.2189C94.8233 70.1039 95.4167 69.9209 95.6964 69.7615C95.9996 69.5889 96.3263 69.3798 96.5694 69.1289C96.7027 68.993 96.7863 68.8492 96.9144 68.7107C97.5627 68.0154 97.9391 66.928 98.0697 65.9687C98.1612 65.2891 98.2188 64.5311 98.1482 63.7966C98.1325 63.6162 98.1482 63.2764 98.1168 63.0909C98.075 62.8399 98.0515 62.7563 98.0384 62.4243C98.0305 62.2204 97.9443 62.0871 97.9208 61.8336L97.7195 60.5554C97.4659 59.4863 97.8633 60.2417 99.4917 59.5438C101.382 58.7362 102.265 56.5353 102.315 54.5905L102.275 51.6343L102.289 51.6316ZM47.9487 85.8734C49.2452 85.2434 50.8031 82.7263 52.2041 82.5982C53.2915 82.4989 54.2482 82.9772 54.6272 83.1968C55.0167 82.9955 55.9969 82.5694 57.079 82.7263C58.4722 82.9275 59.8968 85.5257 61.1566 86.221C62.4165 86.9189 63.368 86.5399 63.368 86.5399C63.368 86.5399 59.8053 91.2527 54.4704 91.1769V91.1822C54.4521 91.1822 54.4364 91.1795 54.4181 91.1769C54.3998 91.1769 54.3841 91.1769 54.3658 91.1769V91.1717C49.0361 90.9652 45.7243 86.072 45.7243 86.072C45.7243 86.072 46.6549 86.5007 47.9487 85.8708V85.8734Z" fill="#FFF9E3"/>
<path d="M37.5246 26.596C37.2946 26.677 37.0541 26.7423 36.8058 26.8495C35.1251 27.5605 35.7498 27.3069 34.273 28.1172C33.8809 28.3316 33.4261 28.6609 33.115 28.9014C32.4563 29.4137 31.646 30.0855 31.2304 30.8566C30.8854 31.497 31.2879 31.6904 31.9362 31.1075L33.5202 29.8319C33.7293 29.662 33.8887 29.5679 34.09 29.432C35.1957 28.6949 34.9892 28.8909 35.8883 28.3838C36.432 28.078 36.9548 27.9316 37.2267 27.7905C37.5665 27.6154 37.4331 27.6128 37.9167 27.4951L38.0657 27.6493C38.2513 27.7931 38.4238 27.7173 38.6538 27.618C38.7793 27.2259 38.5989 27.3095 38.957 27.1213C39.0537 27.1998 39.0773 27.2416 39.1688 27.3278L41.9996 26.7528C42.3708 26.711 44.5795 26.8338 44.8069 26.2927C44.522 26.0261 42.0362 25.8536 41.3853 25.8719C40.9985 25.885 40.2927 25.9425 39.7778 26.047C39.2184 26.1621 38.7427 26.2797 38.2173 26.3842C37.9768 26.4339 37.7651 26.5149 37.5272 26.5986L37.5246 26.596Z" fill="#FFF9E3"/>
<path d="M33.7685 50.39C33.7894 50.1966 33.7685 50.0685 33.8129 49.8777C33.8757 49.6242 33.8835 49.6608 33.9018 49.3759L34.503 46.6496C34.6128 46.3464 34.6598 46.1216 34.7147 45.7766C34.7618 45.4629 35.1669 44.4722 35.1538 43.9312C34.4742 44.8565 33.6509 46.4431 33.3476 47.6455C33.0967 48.6544 32.8954 49.6791 32.7595 50.7063C32.7308 50.9154 32.7517 51.1245 32.7229 51.3337C32.7099 51.4225 32.621 51.8042 32.6184 51.8852C32.5922 52.8889 32.4851 54.8206 32.5896 55.7589C32.621 56.0282 32.6262 56.415 32.6393 56.6555C32.7203 58.0618 32.9268 59.5046 33.1934 60.8821L33.2536 61.2611C33.528 61.2533 33.8077 61.2455 34.0978 61.2428L33.9724 60.2025C33.9776 59.9699 34.1841 59.9307 34.0403 59.6641C34.0403 59.6641 33.4679 59.0759 34.0508 58.7335C34.2756 58.6002 34.3906 58.6813 34.4455 58.4355C34.3435 58.3754 34.2416 58.3597 34.0743 58.3545C34.0273 58.3545 33.8913 58.3545 33.8547 58.3493C33.6064 58.3022 33.7685 58.3963 33.6692 58.2473C33.7162 58.0147 33.5855 58.0931 33.9279 58.0957C33.9175 57.7716 33.8338 57.8474 33.6509 57.6592C33.4208 57.4188 33.5934 57.322 33.6012 57.0031C33.609 56.6999 33.4705 56.1928 33.4783 55.8635L33.5986 51.3206C33.6064 51.0487 33.7423 50.6671 33.7711 50.3953L33.7685 50.39Z" fill="#FFF9E3"/>
<path d="M28.9407 41.6179C28.3578 41.9107 28.878 42.3472 29.1629 42.4178C29.5001 42.5014 29.4373 42.2452 29.3067 42.0623C29.1603 41.8532 29.0662 41.6806 28.9407 41.6179Z" fill="#FFF9E3"/>
<path d="M45.0447 37.535C44.8435 37.7258 44.5533 37.8878 44.3547 38.0786C43.3379 39.0693 42.2217 40.473 41.6754 41.806C41.4611 42.3314 41.1187 43.2463 41.103 43.8814C41.0926 44.2526 41.0586 44.2997 41.1474 44.5767C41.3592 44.4748 41.3565 43.9311 41.4637 43.6279C41.9394 42.2661 42.5929 41.1552 43.4973 40.06L44.5978 38.6642C44.6736 38.5596 44.7546 38.3688 44.8382 38.2512C45.0003 38.3244 44.9689 38.4054 45.1205 38.5544C45.2277 38.6589 45.3584 38.7766 45.5074 38.787C45.5701 38.6563 45.5335 38.1963 45.4708 38.0577C45.3976 37.8983 45.2251 37.6369 45.0473 37.535H45.0447Z" fill="#FFF9E3"/>
<path d="M44.9742 23.0359L43.9652 22.5628C43.8633 22.5314 43.6829 22.4948 43.5706 22.466C42.6217 22.2125 41.6886 22.1916 40.7267 22.419C40.1621 22.5523 39.5452 22.7039 39.1819 23.1274C39.0616 23.2633 38.6512 23.7129 39.0486 23.8096C39.1557 23.8357 40.6979 23.2476 41.1762 23.177C41.3069 23.1561 41.2886 23.1692 41.4037 23.1352C42.4753 22.8372 42.1277 23.1038 42.3133 23.4463C42.491 23.3809 42.4989 23.2868 42.5721 23.0986C43.4242 23.0385 42.8517 23.6371 43.0922 24.0736L43.1837 23.8409C43.2281 23.7364 43.249 23.7155 43.3066 23.6371C43.6307 23.1979 43.5836 23.2764 44.1404 23.292C44.454 23.2999 45.0395 23.4515 45.429 23.4776C45.4395 23.2816 45.4891 23.3025 44.9716 23.0359H44.9742Z" fill="#FFF9E3"/>
<path d="M41.4219 32.3203C41.252 32.4196 41.1788 32.5059 41.0403 32.5895C40.5828 32.8588 40.7763 32.7019 40.2456 33.0836L39.1557 33.9357C39.106 33.9749 39.0354 34.0246 38.9779 34.0794L38.2068 34.9368C37.8696 35.3132 37.3286 36.1287 37.2606 36.6254C37.5952 36.6672 37.7886 36.1653 38.2486 35.7027C38.3872 35.5615 38.4578 35.5458 38.6015 35.4047L39.2105 34.7146C39.3203 34.6493 39.2811 34.7094 39.4275 34.6127C39.6052 34.4924 39.7359 34.2703 39.9032 34.1213L40.2744 33.8363C40.426 33.7318 40.4861 33.6455 40.6168 33.5279C40.9357 33.2482 42.6948 32.0302 42.8151 31.7348C42.5537 31.7583 42.0623 32.0093 41.8479 32.1034C41.6597 32.1896 41.6022 32.2157 41.4219 32.3203Z" fill="#FFF9E3"/>
<path d="M29.8032 25.8353C29.5967 25.7804 29.3537 25.7778 29.1367 25.7282C28.4989 25.587 28.0964 25.6079 27.4717 25.5922C27.4612 25.5922 27.4508 25.5922 27.4429 25.5922C27.4325 25.5922 27.422 25.5922 27.4142 25.5922C27.3619 25.5922 27.3148 25.5922 27.2652 25.5975C27.2181 25.6001 27.1711 25.6079 27.1266 25.6158C27.1031 25.6184 27.0822 25.6236 27.0639 25.6288C27.0404 25.6341 27.0142 25.6393 26.9907 25.6471C26.9776 25.6498 26.962 25.655 26.9489 25.6602C26.928 25.6654 26.9097 25.6733 26.8888 25.6811C26.8522 25.6942 26.8156 25.7099 26.7816 25.7282C26.745 25.7439 26.7136 25.7648 26.6797 25.7831C26.6483 25.8014 26.6143 25.8223 26.5856 25.8458C26.5542 25.8693 26.5228 25.8902 26.4915 25.9164C26.447 25.953 26.4026 25.9922 26.3634 26.034C26.3425 26.0549 26.3242 26.0758 26.3059 26.0967C26.298 26.1072 26.2876 26.1202 26.2797 26.1307C26.2614 26.1542 26.2458 26.1778 26.2327 26.2013C26.1909 26.2745 26.1595 26.3529 26.1517 26.4339C26.1438 26.4966 26.1517 26.562 26.17 26.6273C26.1726 26.6404 26.1778 26.6509 26.183 26.6639C26.1935 26.6901 26.2039 26.7188 26.2196 26.7476C26.2275 26.7606 26.2327 26.7737 26.2432 26.7868C26.2432 26.7868 26.2484 26.7946 26.251 26.7972C26.5908 26.6744 26.2902 26.6979 26.9594 26.5254C27.2521 26.4496 27.6651 26.4966 27.984 26.5176C28.5042 26.5542 28.742 26.6404 28.9041 26.6456C29.9052 26.6848 29.4373 26.7136 29.8764 26.7659C30.0333 26.7842 30.1953 26.7606 30.3495 26.792C30.5142 26.8208 30.5351 26.8626 30.7834 26.9018C30.969 26.9305 31.0605 26.9384 31.2749 26.9619L32.1636 27.1161C32.3492 27.1501 32.4406 27.1919 32.6053 27.1815C32.7151 27.1763 32.9268 27.137 33.0523 27.1031C33.264 27.0429 33.2849 27.0612 33.3764 26.9044C33.1987 26.7972 32.5112 26.5385 32.289 26.4653C30.956 26.0392 30.922 26.1229 29.8085 25.8327L29.8032 25.8353Z" fill="#FFF9E3"/>
<path d="M30.3913 40.5357C30.5273 40.4259 30.5717 40.3684 30.705 40.256L31.7558 39.4196C31.9858 39.2183 32.2394 39.0745 32.2524 38.672C32.0355 38.6589 31.991 38.7452 31.8499 38.8498C31.2173 39.3281 30.2528 40.1854 29.7614 40.7683C29.6359 40.9199 29.6778 40.7213 29.6673 40.9722C29.9679 40.7919 30.1195 40.7553 30.3887 40.5357H30.3913Z" fill="#FFF9E3"/>
</g>
</g>
<defs>
<clipPath id="clip0_1000_2376">
<rect width="277.679" height="114.264" fill="white"/>
</clipPath>
<clipPath id="clip1_1000_2376">
<rect width="109.775" height="114.267" fill="white" transform="translate(0.000488281 0.000488281)"/>
</clipPath>
</defs>
</svg>
